<svg width="207" height="35" viewBox="0 0 207 35" fill="none" xmlns="http://www.w3.org/2000/svg">
<ellipse cx="6.36922" cy="6.36364" rx="5.57308" ry="5.56818" fill="#DBE2ED"/>
<ellipse cx="6.36922" cy="28.6364" rx="5.57308" ry="5.56818" fill="#DBE2ED"/>
<ellipse cx="26.2731" cy="17.5" rx="5.57308" ry="5.56818" fill="#DBE2ED"/>
<path d="M5 6L16.5734 12.55L24.9192 17.2733" stroke="#4065D0" stroke-miterlimit="10" stroke-linejoin="round"/>
<path d="M7 5L18.5734 11.55L26.9192 16.2733" stroke="#4065D0" stroke-miterlimit="10" stroke-linejoin="round"/>
<path d="M5.57306 27.8409L17.1375 21.3704L25.4769 16.7045" stroke="#4065D0" stroke-miterlimit="10" stroke-linejoin="round"/>
<ellipse cx="5.57308" cy="5.56818" rx="5.57308" ry="5.56818" fill="#4065D0"/>
<ellipse cx="5.57308" cy="27.8409" rx="5.57308" ry="5.56818" fill="#4065D0"/>
<ellipse cx="25.4769" cy="16.7045" rx="5.57308" ry="5.56818" fill="#4065D0"/>
<path d="M42.2747 22.9008L38.1587 13.7711H41.4404L43.8877 19.4965L43.1646 19.5653L45.6861 13.7711H48.9307L44.6108 22.9008H42.2747Z" fill="#DBE2ED"/>
<path d="M57.0561 22.9008V13.7711H59.8742L59.9669 15.628L59.3736 15.8343C59.5096 15.4216 59.7506 15.0491 60.0967 14.7167C60.4551 14.3729 60.8816 14.0978 61.376 13.8914C61.8704 13.6851 62.3895 13.582 62.9334 13.582C63.675 13.582 64.2992 13.7252 64.806 14.0118C65.3127 14.2869 65.6959 14.7053 65.9555 15.2669C66.215 15.8171 66.3448 16.4934 66.3448 17.2957V22.9008H63.3598V17.5192C63.3598 17.1524 63.3042 16.8487 63.193 16.608C63.0817 16.3673 62.9087 16.1896 62.6738 16.075C62.4513 15.9489 62.1732 15.8916 61.8395 15.9031C61.5799 15.9031 61.3389 15.9432 61.1164 16.0234C60.8939 16.0922 60.7024 16.2011 60.5417 16.3501C60.381 16.4876 60.2512 16.6481 60.1523 16.8315C60.0658 17.0149 60.0225 17.2155 60.0225 17.4333V22.9008H58.5578C58.2118 22.9008 57.9151 22.9008 57.6679 22.9008C57.4207 22.9008 57.2167 22.9008 57.0561 22.9008Z" fill="#DBE2ED"/>
<path d="M74.5969 23.0727C73.5092 23.0727 72.5636 22.8721 71.7602 22.4709C70.9568 22.0583 70.3326 21.5024 69.8876 20.8032C69.4426 20.0925 69.2202 19.2844 69.2202 18.3789C69.2202 17.6797 69.3438 17.0378 69.591 16.4533C69.8382 15.8687 70.1843 15.3643 70.6292 14.9402C71.0742 14.5047 71.5995 14.1723 72.2052 13.943C72.8232 13.7023 73.4968 13.582 74.2261 13.582C74.9183 13.582 75.5486 13.6966 76.1172 13.9258C76.6981 14.1551 77.1987 14.476 77.619 14.8887C78.0392 15.3013 78.3606 15.7884 78.5831 16.3501C78.8056 16.9117 78.9045 17.525 78.8797 18.1898L78.8612 18.9291H71.0186L70.5921 17.3817H76.4509L76.1357 17.7084V17.3645C76.111 17.0779 76.0121 16.8258 75.8391 16.608C75.6784 16.3787 75.4621 16.2011 75.1902 16.075C74.9183 15.9489 74.6092 15.8859 74.2632 15.8859C73.7811 15.8859 73.367 15.9776 73.0209 16.161C72.6872 16.3329 72.4338 16.5908 72.2608 16.9347C72.0877 17.2671 72.0012 17.6797 72.0012 18.1726C72.0012 18.6769 72.1125 19.1182 72.3349 19.4965C72.5698 19.8633 72.9035 20.1498 73.3361 20.3562C73.7811 20.5625 74.3064 20.6656 74.9121 20.6656C75.3323 20.6656 75.7031 20.6083 76.0245 20.4937C76.3582 20.3791 76.7167 20.1842 77.0998 19.9091L78.4904 21.7316C78.1072 22.0411 77.6993 22.2933 77.2667 22.4881C76.8341 22.683 76.3891 22.8263 75.9318 22.918C75.4868 23.0211 75.0419 23.0727 74.5969 23.0727Z" fill="#DBE2ED"/>
<path d="M82.115 22.9008V11.4672H85.0815V22.9008H82.115ZM81.0042 16.1781V13.7711H86.9912V16.1781H83.6817H81.0042Z" fill="#DBE2ED"/>
<path d="M112.203 23.0727C111.177 23.0727 110.263 22.8664 109.459 22.4537C108.668 22.0411 108.038 21.4795 107.568 20.7688C107.111 20.0581 106.882 19.2443 106.882 18.3273C106.882 17.4104 107.111 16.5965 107.568 15.8859C108.038 15.1752 108.668 14.6136 109.459 14.2009C110.263 13.7883 111.177 13.582 112.203 13.582C113.229 13.582 114.138 13.7883 114.929 14.2009C115.732 14.6136 116.362 15.1752 116.82 15.8859C117.277 16.5965 117.506 17.4104 117.506 18.3273C117.506 19.2443 117.277 20.0581 116.82 20.7688C116.362 21.4795 115.732 22.0411 114.929 22.4537C114.138 22.8664 113.229 23.0727 112.203 23.0727ZM112.203 20.7C112.648 20.7 113.044 20.5969 113.39 20.3905C113.736 20.1842 114.008 19.9034 114.206 19.5481C114.403 19.1927 114.496 18.7858 114.484 18.3273C114.496 17.8688 114.403 17.4619 114.206 17.1066C114.008 16.7398 113.736 16.4533 113.39 16.2469C113.044 16.0406 112.648 15.9375 112.203 15.9375C111.758 15.9375 111.356 16.0406 110.998 16.2469C110.652 16.4533 110.38 16.7398 110.182 17.1066C109.984 17.4619 109.892 17.8688 109.904 18.3273C109.892 18.7858 109.984 19.1927 110.182 19.5481C110.38 19.9034 110.652 20.1842 110.998 20.3905C111.356 20.5969 111.758 20.7 112.203 20.7Z" fill="#DBE2ED"/>
<path d="M120.403 22.9008V13.7711H123.221L123.351 16.7455L122.794 16.1782C122.943 15.6853 123.184 15.244 123.517 14.8543C123.864 14.4646 124.265 14.1551 124.723 13.9258C125.18 13.6966 125.668 13.582 126.187 13.582C126.41 13.582 126.614 13.5992 126.799 13.6335C126.997 13.6679 127.176 13.708 127.337 13.7539L126.521 16.7971C126.385 16.7169 126.2 16.6538 125.965 16.608C125.742 16.5507 125.507 16.522 125.26 16.522C124.988 16.522 124.735 16.5679 124.5 16.6596C124.265 16.7398 124.067 16.8602 123.907 17.0206C123.746 17.1811 123.616 17.3702 123.517 17.588C123.431 17.8058 123.388 18.0522 123.388 18.3273V22.9008H120.403Z" fill="#DBE2ED"/>
<path d="M132.299 20.2186L131.206 18.1554L135.804 13.7711H139.716L132.299 20.2186ZM129.444 22.9008V8.21475H132.411V22.9008H129.444ZM136.119 22.9008L132.652 18.74L134.747 17.2269L139.623 22.9008H136.119Z" fill="#DBE2ED"/>
<path d="M161.365 22.9008V13.7711H164.183L164.313 16.7455L163.756 16.1782C163.905 15.6853 164.146 15.244 164.48 14.8543C164.826 14.4646 165.227 14.1551 165.685 13.9258C166.142 13.6966 166.63 13.582 167.149 13.582C167.372 13.582 167.576 13.5992 167.761 13.6335C167.959 13.6679 168.138 13.708 168.299 13.7539L167.483 16.7971C167.347 16.7169 167.162 16.6538 166.927 16.608C166.704 16.5507 166.47 16.522 166.222 16.522C165.95 16.522 165.697 16.5679 165.462 16.6596C165.227 16.7398 165.03 16.8602 164.869 17.0206C164.708 17.1811 164.578 17.3702 164.48 17.588C164.393 17.8058 164.35 18.0522 164.35 18.3273V22.9008H161.365Z" fill="#DBE2ED"/>
<path d="M174.303 23.0555C173.475 23.0555 172.733 22.8549 172.078 22.4537C171.435 22.0411 170.922 21.4795 170.539 20.7688C170.156 20.0467 169.964 19.2328 169.964 18.3273C169.964 17.3989 170.156 16.5793 170.539 15.8687C170.922 15.158 171.448 14.6021 172.115 14.2009C172.783 13.7883 173.543 13.582 174.396 13.582C174.865 13.582 175.292 13.645 175.675 13.7711C176.07 13.8972 176.416 14.0748 176.713 14.3041C177.01 14.5219 177.263 14.7798 177.473 15.0778C177.683 15.3643 177.838 15.6738 177.937 16.0062L177.325 15.9375V13.7711H180.273V22.9008H177.269V20.7L177.937 20.6828C177.838 21.0038 177.677 21.3075 177.455 21.5941C177.232 21.8806 176.96 22.1328 176.639 22.3506C176.318 22.5684 175.959 22.7403 175.564 22.8664C175.168 22.9925 174.748 23.0555 174.303 23.0555ZM175.119 20.7344C175.576 20.7344 175.972 20.637 176.305 20.4421C176.639 20.2473 176.899 19.9722 177.084 19.6168C177.269 19.25 177.362 18.8202 177.362 18.3273C177.362 17.8345 177.269 17.4104 177.084 17.055C176.899 16.6882 176.639 16.4074 176.305 16.2125C175.972 16.0062 175.576 15.9031 175.119 15.9031C174.674 15.9031 174.284 16.0062 173.951 16.2125C173.629 16.4074 173.376 16.6882 173.19 17.055C173.005 17.4104 172.912 17.8345 172.912 18.3273C172.912 18.8202 173.005 19.25 173.19 19.6168C173.376 19.9722 173.629 20.2473 173.951 20.4421C174.284 20.637 174.674 20.7344 175.119 20.7344Z" fill="#DBE2ED"/>
<path d="M183.363 26.6833V13.7711H186.181L186.292 15.8171L185.736 15.6623C185.823 15.2841 186.033 14.9402 186.367 14.6307C186.7 14.3213 187.121 14.0748 187.627 13.8914C188.146 13.6966 188.69 13.5991 189.259 13.5991C190.099 13.5991 190.847 13.8055 191.502 14.2181C192.157 14.6193 192.67 15.1752 193.041 15.8859C193.424 16.5851 193.616 17.3989 193.616 18.3273C193.616 19.2443 193.424 20.0581 193.041 20.7688C192.67 21.4794 192.151 22.0411 191.484 22.4537C190.829 22.8549 190.075 23.0555 189.222 23.0555C188.666 23.0555 188.134 22.9581 187.627 22.7632C187.121 22.5684 186.694 22.3047 186.348 21.9723C186.002 21.6399 185.773 21.2789 185.662 20.8891L186.348 20.6484V26.6833H183.363ZM188.499 20.7344C188.944 20.7344 189.333 20.637 189.667 20.4421C190 20.2358 190.26 19.955 190.445 19.5996C190.631 19.2443 190.724 18.8202 190.724 18.3273C190.724 17.8459 190.631 17.4275 190.445 17.0722C190.26 16.7054 190 16.4246 189.667 16.2297C189.345 16.0234 188.956 15.9202 188.499 15.9202C188.041 15.9202 187.646 16.0177 187.312 16.2125C186.978 16.4074 186.719 16.6882 186.533 17.055C186.348 17.4218 186.255 17.8459 186.255 18.3273C186.255 18.8202 186.348 19.2443 186.533 19.5996C186.719 19.955 186.978 20.2358 187.312 20.4421C187.646 20.637 188.041 20.7344 188.499 20.7344Z" fill="#DBE2ED"/>
<path d="M196.496 22.9008V8.21475H199.407V15.628L198.813 15.8343C198.949 15.4216 199.19 15.0491 199.536 14.7167C199.895 14.3728 200.321 14.0977 200.816 13.8914C201.31 13.6851 201.829 13.5819 202.373 13.5819C203.115 13.5819 203.739 13.7252 204.246 14.0118C204.753 14.2869 205.136 14.7052 205.395 15.2669C205.655 15.8171 205.785 16.4934 205.785 17.2957V22.9008H202.8V17.5192C202.8 17.1524 202.744 16.8487 202.633 16.608C202.521 16.3673 202.348 16.1896 202.114 16.075C201.891 15.9489 201.613 15.8916 201.279 15.9031C201.02 15.9031 200.779 15.9432 200.556 16.0234C200.334 16.0922 200.142 16.2011 199.981 16.3501C199.821 16.4876 199.691 16.6481 199.592 16.8315C199.506 17.0149 199.462 17.2155 199.462 17.4333V22.9008H197.998C197.652 22.9008 197.355 22.9008 197.108 22.9008C196.86 22.9008 196.657 22.9008 196.496 22.9008Z" fill="#DBE2ED"/>
<path d="M152.784 26.8409C151.987 26.8409 151.19 26.7322 150.393 26.5147C149.608 26.2973 148.971 26.0169 148.48 25.6735L149.51 23.7508C149.768 23.911 150.05 24.0484 150.356 24.1628C150.675 24.2887 151.006 24.386 151.349 24.4546C151.693 24.5233 152.042 24.5577 152.398 24.5577C153.023 24.5577 153.532 24.4718 153.924 24.3001C154.317 24.1285 154.611 23.8652 154.807 23.5104C155.004 23.1671 155.102 22.7322 155.102 22.2057V20.6778L155.672 20.7637C155.586 21.1413 155.371 21.4847 155.028 21.7937C154.697 22.1027 154.286 22.3545 153.796 22.5491C153.305 22.7322 152.784 22.8237 152.232 22.8237C151.349 22.8237 150.559 22.6349 149.86 22.2572C149.173 21.8681 148.627 21.3359 148.223 20.6607C147.83 19.974 147.634 19.1843 147.634 18.2916C147.634 17.376 147.83 16.5691 148.223 15.8709C148.615 15.1614 149.154 14.6063 149.841 14.2057C150.528 13.7937 151.3 13.5877 152.159 13.5877C152.527 13.5877 152.876 13.6277 153.207 13.7079C153.55 13.788 153.863 13.8967 154.145 14.034C154.439 14.1599 154.697 14.3144 154.918 14.4976C155.151 14.6692 155.335 14.8581 155.47 15.0641C155.617 15.2701 155.715 15.4818 155.764 15.6993L155.157 15.8366L155.267 13.7765H158.063V22.1542C158.063 22.8981 157.94 23.5562 157.695 24.1285C157.462 24.7122 157.113 25.2043 156.647 25.6049C156.193 26.0169 155.641 26.3259 154.991 26.5319C154.341 26.7379 153.606 26.8409 152.784 26.8409ZM152.858 20.695C153.336 20.695 153.747 20.5977 154.09 20.4031C154.446 20.1971 154.715 19.9167 154.899 19.5619C155.096 19.2071 155.194 18.7894 155.194 18.3087C155.194 17.828 155.096 17.4103 154.899 17.0555C154.715 16.6893 154.446 16.4089 154.09 16.2143C153.747 16.0083 153.336 15.9053 152.858 15.9053C152.392 15.9053 151.987 16.0083 151.644 16.2143C151.3 16.4089 151.031 16.6893 150.834 17.0555C150.65 17.4103 150.559 17.828 150.559 18.3087C150.559 18.7894 150.65 19.2071 150.834 19.5619C151.031 19.9167 151.3 20.1971 151.644 20.4031C151.987 20.5977 152.392 20.695 152.858 20.695Z" fill="#DBE2ED"/>
<path d="M141.068 19.3188V16.8114H146.089V19.3188H141.068Z" fill="#DBE2ED"/>
<path d="M92.7875 22.9008L89.1156 13.9459H92.6616L94.7178 19.764L94.2772 19.6966L96.5852 13.9459H98.5575L100.991 19.7134L100.509 19.7472L102.565 13.9459H106.111L102.313 22.9008H99.8374L97.4245 16.8634L97.6763 16.8971L95.2633 22.9008H92.7875Z" fill="#DBE2ED"/>
<path d="M49.9103 19.3188V16.8114H54.9316V19.3188H49.9103Z" fill="#DBE2ED"/>
<path d="M41.116 21.686L37 12.5563H40.2817L42.729 18.2817L42.0059 18.3505L44.5274 12.5563H47.772L43.4521 21.686H41.116Z" fill="#2D355D"/>
<path d="M55.8974 21.686V12.5563H58.7155L58.8082 14.4132L58.2149 14.6195C58.3509 14.2069 58.5919 13.8344 58.938 13.502C59.2965 13.1581 59.7229 12.883 60.2173 12.6767C60.7117 12.4704 61.2308 12.3672 61.7747 12.3672C62.5163 12.3672 63.1405 12.5105 63.6473 12.797C64.1541 13.0721 64.5372 13.4905 64.7968 14.0522C65.0564 14.6023 65.1861 15.2786 65.1861 16.081V21.686H62.2011V16.3045C62.2011 15.9377 62.1455 15.6339 62.0343 15.3932C61.923 15.1525 61.75 14.9749 61.5151 14.8602C61.2926 14.7342 61.0145 14.6768 60.6808 14.6883C60.4212 14.6883 60.1802 14.7284 59.9577 14.8087C59.7352 14.8774 59.5437 14.9863 59.383 15.1353C59.2223 15.2729 59.0925 15.4334 58.9936 15.6168C58.9071 15.8002 58.8638 16.0007 58.8638 16.2185V21.686H57.3991C57.0531 21.686 56.7564 21.686 56.5092 21.686C56.262 21.686 56.0581 21.686 55.8974 21.686Z" fill="#2D355D"/>
<path d="M73.4382 21.858C72.3505 21.858 71.4049 21.6574 70.6015 21.2562C69.7981 20.8435 69.1739 20.2876 68.7289 19.5884C68.2839 18.8778 68.0615 18.0697 68.0615 17.1642C68.0615 16.465 68.1851 15.8231 68.4323 15.2385C68.6795 14.6539 69.0256 14.1496 69.4705 13.7255C69.9155 13.2899 70.4408 12.9575 71.0465 12.7283C71.6645 12.4876 72.3381 12.3672 73.0674 12.3672C73.7596 12.3672 74.3899 12.4818 74.9585 12.7111C75.5394 12.9403 76.04 13.2613 76.4603 13.6739C76.8805 14.0865 77.2019 14.5737 77.4244 15.1353C77.6469 15.697 77.7458 16.3102 77.721 16.975L77.7025 17.7143H69.8599L69.4335 16.1669H75.2922L74.9771 16.4936V16.1497C74.9523 15.8632 74.8534 15.611 74.6804 15.3932C74.5197 15.164 74.3034 14.9863 74.0315 14.8602C73.7596 14.7342 73.4506 14.6711 73.1045 14.6711C72.6224 14.6711 72.2083 14.7628 71.8623 14.9462C71.5285 15.1181 71.2751 15.376 71.1021 15.7199C70.9291 16.0523 70.8425 16.465 70.8425 16.9578C70.8425 17.4622 70.9538 17.9035 71.1763 18.2817C71.4111 18.6485 71.7448 18.9351 72.1774 19.1414C72.6224 19.3477 73.1477 19.4509 73.7534 19.4509C74.1736 19.4509 74.5444 19.3936 74.8658 19.2789C75.1995 19.1643 75.558 18.9695 75.9412 18.6944L77.3317 20.5169C76.9485 20.8263 76.5406 21.0785 76.108 21.2734C75.6754 21.4682 75.2304 21.6115 74.7731 21.7032C74.3281 21.8064 73.8832 21.858 73.4382 21.858Z" fill="#2D355D"/>
<path d="M80.9564 21.686V10.2524H83.9228V21.686H80.9564ZM79.8455 14.9634V12.5563H85.8325V14.9634H82.523H79.8455Z" fill="#2D355D"/>
<path d="M111.044 21.858C110.019 21.858 109.104 21.6516 108.3 21.239C107.509 20.8263 106.879 20.2647 106.409 19.554C105.952 18.8434 105.723 18.0296 105.723 17.1126C105.723 16.1956 105.952 15.3818 106.409 14.6711C106.879 13.9605 107.509 13.3988 108.3 12.9862C109.104 12.5735 110.019 12.3672 111.044 12.3672C112.07 12.3672 112.979 12.5735 113.77 12.9862C114.573 13.3988 115.204 13.9605 115.661 14.6711C116.118 15.3818 116.347 16.1956 116.347 17.1126C116.347 18.0296 116.118 18.8434 115.661 19.554C115.204 20.2647 114.573 20.8263 113.77 21.239C112.979 21.6516 112.07 21.858 111.044 21.858ZM111.044 19.4853C111.489 19.4853 111.885 19.3821 112.231 19.1758C112.577 18.9695 112.849 18.6886 113.047 18.3333C113.245 17.978 113.337 17.5711 113.325 17.1126C113.337 16.6541 113.245 16.2472 113.047 15.8918C112.849 15.5251 112.577 15.2385 112.231 15.0322C111.885 14.8259 111.489 14.7227 111.044 14.7227C110.599 14.7227 110.198 14.8259 109.839 15.0322C109.493 15.2385 109.221 15.5251 109.024 15.8918C108.826 16.2472 108.733 16.6541 108.745 17.1126C108.733 17.5711 108.826 17.978 109.024 18.3333C109.221 18.6886 109.493 18.9695 109.839 19.1758C110.198 19.3821 110.599 19.4853 111.044 19.4853Z" fill="#2D355D"/>
<path d="M119.244 21.686V12.5563H122.062L122.192 15.5308L121.636 14.9634C121.784 14.4705 122.025 14.0292 122.359 13.6395C122.705 13.2498 123.107 12.9403 123.564 12.7111C124.021 12.4818 124.509 12.3672 125.029 12.3672C125.251 12.3672 125.455 12.3844 125.64 12.4188C125.838 12.4532 126.017 12.4933 126.178 12.5391L125.362 15.5824C125.226 15.5021 125.041 15.4391 124.806 15.3932C124.584 15.3359 124.349 15.3073 124.102 15.3073C123.83 15.3073 123.576 15.3531 123.341 15.4448C123.107 15.5251 122.909 15.6454 122.748 15.8059C122.587 15.9664 122.458 16.1555 122.359 16.3733C122.272 16.591 122.229 16.8375 122.229 17.1126V21.686H119.244Z" fill="#2D355D"/>
<path d="M131.141 19.0038L130.047 16.9406L134.645 12.5563H138.557L131.141 19.0038ZM128.286 21.686V7H131.252V21.686H128.286ZM134.96 21.686L131.493 17.5252L133.588 16.0122L138.464 21.686H134.96Z" fill="#2D355D"/>
<path d="M160.206 21.686V12.5563H163.024L163.154 15.5308L162.598 14.9634C162.746 14.4705 162.987 14.0292 163.321 13.6395C163.667 13.2498 164.069 12.9403 164.526 12.7111C164.983 12.4818 165.472 12.3672 165.991 12.3672C166.213 12.3672 166.417 12.3844 166.602 12.4188C166.8 12.4532 166.979 12.4933 167.14 12.5391L166.324 15.5824C166.188 15.5021 166.003 15.4391 165.768 15.3932C165.546 15.3359 165.311 15.3073 165.064 15.3073C164.792 15.3073 164.538 15.3531 164.303 15.4448C164.069 15.5251 163.871 15.6454 163.71 15.8059C163.55 15.9664 163.42 16.1555 163.321 16.3733C163.234 16.591 163.191 16.8375 163.191 17.1126V21.686H160.206Z" fill="#2D355D"/>
<path d="M173.144 21.8408C172.316 21.8408 171.574 21.6402 170.919 21.239C170.277 20.8263 169.764 20.2647 169.38 19.554C168.997 18.8319 168.806 18.0181 168.806 17.1126C168.806 16.1841 168.997 15.3646 169.38 14.6539C169.764 13.9433 170.289 13.3873 170.956 12.9862C171.624 12.5735 172.384 12.3672 173.237 12.3672C173.707 12.3672 174.133 12.4302 174.516 12.5563C174.912 12.6824 175.258 12.8601 175.554 13.0893C175.851 13.3071 176.104 13.565 176.315 13.863C176.525 14.1496 176.679 14.4591 176.778 14.7915L176.166 14.7227V12.5563H179.114V21.686H176.111V19.4853L176.778 19.4681C176.679 19.789 176.519 20.0928 176.296 20.3793C176.074 20.6659 175.802 20.918 175.48 21.1358C175.159 21.3536 174.8 21.5255 174.405 21.6516C174.009 21.7777 173.589 21.8408 173.144 21.8408ZM173.96 19.5197C174.417 19.5197 174.813 19.4222 175.147 19.2274C175.48 19.0325 175.74 18.7574 175.925 18.4021C176.111 18.0353 176.203 17.6055 176.203 17.1126C176.203 16.6197 176.111 16.1956 175.925 15.8403C175.74 15.4735 175.48 15.1927 175.147 14.9978C174.813 14.7915 174.417 14.6883 173.96 14.6883C173.515 14.6883 173.126 14.7915 172.792 14.9978C172.471 15.1927 172.217 15.4735 172.032 15.8403C171.846 16.1956 171.754 16.6197 171.754 17.1126C171.754 17.6055 171.846 18.0353 172.032 18.4021C172.217 18.7574 172.471 19.0325 172.792 19.2274C173.126 19.4222 173.515 19.5197 173.96 19.5197Z" fill="#2D355D"/>
<path d="M182.204 25.4686V12.5563H185.022L185.134 14.6023L184.577 14.4476C184.664 14.0693 184.874 13.7255 185.208 13.416C185.542 13.1065 185.962 12.8601 186.469 12.6767C186.988 12.4818 187.532 12.3844 188.1 12.3844C188.941 12.3844 189.688 12.5907 190.344 13.0034C190.999 13.4045 191.512 13.9604 191.882 14.6711C192.266 15.3703 192.457 16.1841 192.457 17.1126C192.457 18.0295 192.266 18.8434 191.882 19.554C191.512 20.2647 190.992 20.8263 190.325 21.239C189.67 21.6402 188.916 21.8408 188.063 21.8408C187.507 21.8408 186.975 21.7433 186.469 21.5485C185.962 21.3536 185.535 21.09 185.189 20.7576C184.843 20.4252 184.615 20.0641 184.503 19.6744L185.189 19.4337V25.4686H182.204ZM187.34 19.5196C187.785 19.5196 188.174 19.4222 188.508 19.2274C188.842 19.021 189.101 18.7402 189.287 18.3849C189.472 18.0295 189.565 17.6054 189.565 17.1126C189.565 16.6312 189.472 16.2128 189.287 15.8575C189.101 15.4907 188.842 15.2098 188.508 15.015C188.187 14.8087 187.797 14.7055 187.34 14.7055C186.883 14.7055 186.487 14.8029 186.153 14.9978C185.82 15.1926 185.56 15.4735 185.375 15.8403C185.189 16.2071 185.097 16.6312 185.097 17.1126C185.097 17.6054 185.189 18.0295 185.375 18.3849C185.56 18.7402 185.82 19.021 186.153 19.2274C186.487 19.4222 186.883 19.5196 187.34 19.5196Z" fill="#2D355D"/>
<path d="M195.337 21.686V7H198.248V14.4132L197.655 14.6195C197.791 14.2069 198.032 13.8344 198.378 13.502C198.736 13.1581 199.163 12.883 199.657 12.6767C200.151 12.4704 200.671 12.3672 201.214 12.3672C201.956 12.3672 202.58 12.5105 203.087 12.797C203.594 13.0721 203.977 13.4905 204.237 14.0521C204.496 14.6023 204.626 15.2786 204.626 16.081V21.686H201.641V16.3045C201.641 15.9377 201.585 15.6339 201.474 15.3932C201.363 15.1525 201.19 14.9749 200.955 14.8602C200.732 14.7342 200.454 14.6768 200.121 14.6883C199.861 14.6883 199.62 14.7284 199.398 14.8087C199.175 14.8774 198.983 14.9863 198.823 15.1353C198.662 15.2729 198.532 15.4333 198.433 15.6167C198.347 15.8001 198.304 16.0007 198.304 16.2185V21.686H196.839C196.493 21.686 196.196 21.686 195.949 21.686C195.702 21.686 195.498 21.686 195.337 21.686Z" fill="#2D355D"/>
<path d="M151.625 25.6262C150.828 25.6262 150.031 25.5174 149.234 25.3C148.449 25.0825 147.812 24.8021 147.321 24.4588L148.351 22.536C148.609 22.6963 148.891 22.8336 149.197 22.9481C149.516 23.0739 149.847 23.1712 150.191 23.2399C150.534 23.3086 150.884 23.3429 151.239 23.3429C151.865 23.3429 152.373 23.2571 152.766 23.0854C153.158 22.9137 153.452 22.6505 153.649 22.2957C153.845 21.9523 153.943 21.5174 153.943 20.991V19.4631L154.513 19.5489C154.427 19.9266 154.213 20.2699 153.869 20.579C153.538 20.888 153.128 21.1398 152.637 21.3343C152.147 21.5174 151.625 21.609 151.074 21.609C150.191 21.609 149.4 21.4202 148.701 21.0425C148.014 20.6533 147.469 20.1212 147.064 19.4459C146.671 18.7592 146.475 17.9695 146.475 17.0768C146.475 16.1612 146.671 15.3543 147.064 14.6562C147.456 13.9466 147.996 13.3915 148.682 12.991C149.369 12.5789 150.142 12.3729 151 12.3729C151.368 12.3729 151.717 12.413 152.048 12.4931C152.392 12.5732 152.704 12.6819 152.987 12.8193C153.281 12.9452 153.538 13.0997 153.759 13.2828C153.992 13.4545 154.176 13.6433 154.311 13.8493C154.458 14.0553 154.556 14.2671 154.605 14.4845L153.998 14.6219L154.109 12.5618H156.904V20.9395C156.904 21.6834 156.782 22.3415 156.536 22.9137C156.303 23.4974 155.954 23.9895 155.488 24.3901C155.034 24.8021 154.482 25.1111 153.833 25.3172C153.183 25.5232 152.447 25.6262 151.625 25.6262ZM151.699 19.4802C152.177 19.4802 152.588 19.383 152.931 19.1884C153.287 18.9824 153.557 18.702 153.741 18.3472C153.937 17.9924 154.035 17.5747 154.035 17.094C154.035 16.6133 153.937 16.1955 153.741 15.8407C153.557 15.4745 153.287 15.1941 152.931 14.9995C152.588 14.7935 152.177 14.6905 151.699 14.6905C151.233 14.6905 150.828 14.7935 150.485 14.9995C150.142 15.1941 149.872 15.4745 149.676 15.8407C149.492 16.1955 149.4 16.6133 149.4 17.094C149.4 17.5747 149.492 17.9924 149.676 18.3472C149.872 18.702 150.142 18.9824 150.485 19.1884C150.828 19.383 151.233 19.4802 151.699 19.4802Z" fill="#2D355D"/>
<path d="M139.909 18.1041V15.5967H144.93V18.1041H139.909Z" fill="#2D355D"/>
<path d="M91.6288 21.686L87.9569 12.7311H91.5029L93.5591 18.5493L93.1185 18.4818L95.4265 12.7311H97.3988L99.8327 18.4987L99.3502 18.5324L101.406 12.7311H104.952L101.155 21.686H98.6787L96.2658 15.6487L96.5176 15.6824L94.1047 21.686H91.6288Z" fill="#2D355D"/>
<path d="M48.7516 18.1041V15.5967H53.7729V18.1041H48.7516Z" fill="#2D355D"/>
</svg>
