<?xml version="1.0" encoding="UTF-8" standalone="no"?>
<!DOCTYPE svg PUBLIC "-//W3C//DTD SVG 1.1//EN" "http://www.w3.org/Graphics/SVG/1.1/DTD/svg11.dtd">
<svg stroke-miterlimit="10" style="fill-rule:nonzero;clip-rule:evenodd;stroke-linecap:round;stroke-linejoin:round;" version="1.1" viewBox="0 0 540 100" width="540" height="100" xml:space="preserve" xmlns="http://www.w3.org/2000/svg" xmlns:xlink="http://www.w3.org/1999/xlink">
<defs/>
<g>
<g opacity="1">
<path d="M4.21928 18.3302C4.21928 11.2509 9.95817 5.512 17.0375 5.512C24.1167 5.512 29.8556 11.2509 29.8556 18.3302C29.8556 25.4095 24.1167 31.1484 17.0375 31.1484C9.95817 31.1484 4.21928 25.4095 4.21928 18.3302Z" fill="#dbe2ed" fill-rule="nonzero" opacity="1" stroke="none"/>
<path d="M4.21928 82.9325C4.21928 75.8532 9.95817 70.1143 17.0375 70.1143C24.1167 70.1143 29.8556 75.8532 29.8556 82.9325C29.8556 90.0118 24.1167 95.7507 17.0375 95.7507C9.95817 95.7507 4.21928 90.0118 4.21928 82.9325Z" fill="#dbe2ed" fill-rule="nonzero" opacity="1" stroke="none"/>
<path d="M53.8148 50.6314C53.8148 43.5521 59.5537 37.8132 66.633 37.8132C73.7122 37.8132 79.4511 43.5521 79.4511 50.6314C79.4511 57.7106 73.7122 63.4495 66.633 63.4495C59.5537 63.4495 53.8148 57.7106 53.8148 50.6314Z" fill="#dbe2ed" fill-rule="nonzero" opacity="1" stroke="none"/>
</g>
<g opacity="1">
<path d="M2.48164 15.8203C2.48164 8.74098 8.22054 3.00208 15.2998 3.00208C22.3791 3.00208 28.118 8.74098 28.118 15.8203C28.118 22.8996 22.3791 28.6384 15.2998 28.6384C8.22054 28.6384 2.48164 22.8996 2.48164 15.8203Z" fill="#4065d0" fill-rule="nonzero" opacity="1" stroke="none"/>
<path d="M2.48164 80.4226C2.48164 73.3433 8.22054 67.6044 15.2998 67.6044C22.3791 67.6044 28.118 73.3433 28.118 80.4226C28.118 87.5019 22.3791 93.2408 15.2998 93.2408C8.22054 93.2408 2.48164 87.5019 2.48164 80.4226Z" fill="#4065d0" fill-rule="nonzero" opacity="1" stroke="none"/>
<path d="M52.0771 48.1214C52.0771 41.0421 57.816 35.3033 64.8953 35.3033C71.9746 35.3033 77.7135 41.0421 77.7135 48.1214C77.7135 55.2007 71.9746 60.9396 64.8953 60.9396C57.816 60.9396 52.0771 55.2007 52.0771 48.1214Z" fill="#4065d0" fill-rule="nonzero" opacity="1" stroke="none"/>
<path d="M15.2096 13.6074L43.8837 32.5349L64.561 46.1838" fill="none" opacity="1" stroke="#4065d0" stroke-linecap="butt" stroke-linejoin="round" stroke-width="2.44441"/>
<path d="M12.3025 17.2067L40.9766 36.1342L61.6539 49.7831" fill="none" opacity="1" stroke="#4065d0" stroke-linecap="butt" stroke-linejoin="round" stroke-width="2.44441"/>
<path d="M14.6135 80.4877L43.5693 61.2049L64.4498 47.2998" fill="none" opacity="1" stroke="#4065d0" stroke-linecap="butt" stroke-linejoin="round" stroke-width="2.44441"/>
</g>
<g class="vng-logo-background" fill="#dbe2ed" opacity="1" stroke="none">
<path d="M109.176 38.9215L114.666 50.7565L120.246 38.9215L129.336 38.9215L117.321 62.0065L111.876 62.0065L99.9959 38.9215L109.176 38.9215Z"/>
<path d="M132.157 46.5715L145.072 46.5715L145.072 53.3665L132.157 53.3665L132.157 46.5715Z"/>
<path d="M150.187 38.9215L158.332 38.9215L158.332 41.8465C159.442 40.4965 160.567 39.589 161.707 39.124C162.847 38.659 164.182 38.4265 165.712 38.4265C167.332 38.4265 168.72 38.689 169.875 39.214C171.03 39.739 172.012 40.4815 172.822 41.4415C173.482 42.2215 173.932 43.0915 174.172 44.0515C174.412 45.0115 174.532 46.1065 174.532 47.3365L174.532 62.0065L166.387 62.0065L166.387 50.3515C166.387 49.2115 166.305 48.289 166.14 47.584C165.975 46.879 165.682 46.3165 165.262 45.8965C164.902 45.5365 164.497 45.2815 164.047 45.1315C163.597 44.9815 163.117 44.9065 162.607 44.9065C161.227 44.9065 160.17 45.319 159.435 46.144C158.7 46.969 158.332 48.1465 158.332 49.6765L158.332 62.0065L150.187 62.0065L150.187 38.9215Z"/>
<path d="M199.268 47.1115C198.998 45.9715 198.443 45.0565 197.603 44.3665C196.763 43.6765 195.743 43.3315 194.543 43.3315C193.283 43.3315 192.255 43.6615 191.46 44.3215C190.665 44.9815 190.163 45.9115 189.953 47.1115L199.268 47.1115ZM189.728 51.8365C189.728 55.3465 191.378 57.1015 194.678 57.1015C196.448 57.1015 197.783 56.3815 198.683 54.9415L206.558 54.9415C204.968 60.2215 200.993 62.8615 194.633 62.8615C192.683 62.8615 190.898 62.569 189.278 61.984C187.658 61.399 186.27 60.5665 185.115 59.4865C183.96 58.4065 183.068 57.1165 182.438 55.6165C181.808 54.1165 181.493 52.4365 181.493 50.5765C181.493 48.6565 181.793 46.924 182.393 45.379C182.993 43.834 183.848 42.5215 184.958 41.4415C186.068 40.3615 187.41 39.529 188.985 38.944C190.56 38.359 192.338 38.0665 194.318 38.0665C196.268 38.0665 198.023 38.359 199.583 38.944C201.143 39.529 202.463 40.3765 203.543 41.4865C204.623 42.5965 205.448 43.954 206.018 45.559C206.588 47.164 206.873 48.9715 206.873 50.9815L206.873 51.8365L189.728 51.8365Z"/>
<path d="M223.238 45.7165L223.238 62.0065L215.093 62.0065L215.093 45.7165L212.393 45.7165L212.393 38.9215L215.093 38.9215L215.093 31.9915L223.238 31.9915L223.238 38.9215L227.873 38.9215L227.873 45.7165L223.238 45.7165Z"/>
<path d="M239.559 38.9215L245.094 51.0715L250.854 38.9215L255.984 38.9215L261.744 51.4315L267.549 38.9215L276.594 38.9215L264.534 62.0065L259.089 62.0065L253.329 49.3615L247.839 62.0065L242.304 62.0065L230.469 38.9215L239.559 38.9215Z"/>
<path d="M288.234 50.3515C288.234 51.1315 288.377 51.844 288.662 52.489C288.947 53.134 289.322 53.6965 289.787 54.1765C290.252 54.6565 290.807 55.0315 291.452 55.3015C292.097 55.5715 292.779 55.7065 293.499 55.7065C294.219 55.7065 294.902 55.5715 295.547 55.3015C296.192 55.0315 296.747 54.6565 297.212 54.1765C297.677 53.6965 298.052 53.134 298.337 52.489C298.622 51.844 298.764 51.1465 298.764 50.3965C298.764 49.6765 298.622 48.994 298.337 48.349C298.052 47.704 297.677 47.1415 297.212 46.6615C296.747 46.1815 296.192 45.8065 295.547 45.5365C294.902 45.2665 294.219 45.1315 293.499 45.1315C292.779 45.1315 292.097 45.2665 291.452 45.5365C290.807 45.8065 290.252 46.1815 289.787 46.6615C289.322 47.1415 288.947 47.6965 288.662 48.3265C288.377 48.9565 288.234 49.6315 288.234 50.3515ZM279.639 50.2615C279.639 48.5515 279.984 46.954 280.674 45.469C281.364 43.984 282.324 42.694 283.554 41.599C284.784 40.504 286.247 39.6415 287.942 39.0115C289.637 38.3815 291.489 38.0665 293.499 38.0665C295.479 38.0665 297.317 38.374 299.012 38.989C300.707 39.604 302.177 40.459 303.422 41.554C304.667 42.649 305.634 43.954 306.324 45.469C307.014 46.984 307.359 48.6565 307.359 50.4865C307.359 52.3165 307.007 53.989 306.302 55.504C305.597 57.019 304.629 58.324 303.399 59.419C302.169 60.514 300.692 61.3615 298.967 61.9615C297.242 62.5615 295.374 62.8615 293.364 62.8615C291.384 62.8615 289.554 62.5615 287.874 61.9615C286.194 61.3615 284.747 60.5065 283.532 59.3965C282.317 58.2865 281.364 56.959 280.674 55.414C279.984 53.869 279.639 52.1515 279.639 50.2615Z"/>
<path d="M314.365 38.9215L322.51 38.9215L322.51 42.7015C323.38 41.3215 324.445 40.264 325.705 39.529C326.965 38.794 328.435 38.4265 330.115 38.4265C330.325 38.4265 330.558 38.4265 330.813 38.4265C331.068 38.4265 331.36 38.4565 331.69 38.5165L331.69 46.3015C330.61 45.7615 329.44 45.4915 328.18 45.4915C326.29 45.4915 324.873 46.054 323.928 47.179C322.983 48.304 322.51 49.9465 322.51 52.1065L322.51 62.0065L314.365 62.0065L314.365 38.9215Z"/>
<path d="M345.806 24.6565L345.806 47.2465L354.356 38.9215L365.516 38.9215L353.951 49.5865L366.191 62.0065L354.761 62.0065L345.806 52.6015L345.806 62.0065L337.661 62.0065L337.661 24.6565L345.806 24.6565Z"/>
<path d="M367.661 46.5715L380.576 46.5715L380.576 53.3665L367.661 53.3665L367.661 46.5715Z"/>
<path d="M393.252 50.3515C393.252 51.1015 393.387 51.799 393.657 52.444C393.927 53.089 394.294 53.6515 394.759 54.1315C395.224 54.6115 395.779 54.9865 396.424 55.2565C397.069 55.5265 397.767 55.6615 398.517 55.6615C399.237 55.6615 399.919 55.5265 400.564 55.2565C401.209 54.9865 401.764 54.6115 402.229 54.1315C402.694 53.6515 403.069 53.089 403.354 52.444C403.639 51.799 403.782 51.1165 403.782 50.3965C403.782 49.6465 403.639 48.9565 403.354 48.3265C403.069 47.6965 402.687 47.1415 402.207 46.6615C401.727 46.1815 401.164 45.8065 400.519 45.5365C399.874 45.2665 399.207 45.1315 398.517 45.1315C397.797 45.1315 397.122 45.274 396.492 45.559C395.862 45.844 395.307 46.219 394.827 46.684C394.347 47.149 393.964 47.6965 393.679 48.3265C393.394 48.9565 393.252 49.6315 393.252 50.3515ZM411.522 38.9215L411.522 60.4315C411.522 61.7215 411.447 62.8765 411.297 63.8965C411.147 64.9165 410.937 65.8165 410.667 66.5965C410.307 67.5865 409.744 68.509 408.979 69.364C408.214 70.219 407.292 70.9615 406.212 71.5915C405.132 72.2215 403.909 72.7165 402.544 73.0765C401.179 73.4365 399.702 73.6165 398.112 73.6165C396.312 73.6165 394.662 73.3915 393.162 72.9415C391.662 72.4915 390.349 71.869 389.224 71.074C388.099 70.279 387.177 69.349 386.457 68.284C385.737 67.219 385.257 66.0565 385.017 64.7965L394.197 64.7965C394.767 66.3265 396.057 67.0915 398.067 67.0915C399.777 67.0915 401.089 66.6115 402.004 65.6515C402.919 64.6915 403.377 63.3565 403.377 61.6465L403.377 59.4415C402.777 60.0115 402.199 60.484 401.644 60.859C401.089 61.234 400.527 61.5415 399.957 61.7815C399.387 62.0215 398.787 62.194 398.157 62.299C397.527 62.404 396.837 62.4565 396.087 62.4565C394.437 62.4565 392.922 62.1715 391.542 61.6015C390.162 61.0315 388.969 60.2365 387.964 59.2165C386.959 58.1965 386.179 56.974 385.624 55.549C385.069 54.124 384.792 52.5415 384.792 50.8015C384.792 49.0315 385.092 47.389 385.692 45.874C386.292 44.359 387.109 43.039 388.144 41.914C389.179 40.789 390.409 39.904 391.834 39.259C393.259 38.614 394.812 38.2915 396.492 38.2915C399.222 38.2915 401.517 39.3115 403.377 41.3515L403.377 38.9215L411.522 38.9215Z"/>
<path d="M420.192 38.9215L428.337 38.9215L428.337 42.7015C429.207 41.3215 430.272 40.264 431.532 39.529C432.792 38.794 434.262 38.4265 435.942 38.4265C436.152 38.4265 436.385 38.4265 436.64 38.4265C436.895 38.4265 437.187 38.4565 437.517 38.5165L437.517 46.3015C436.437 45.7615 435.267 45.4915 434.007 45.4915C432.117 45.4915 430.7 46.054 429.755 47.179C428.81 48.304 428.337 49.9465 428.337 52.1065L428.337 62.0065L420.192 62.0065L420.192 38.9215Z"/>
<path d="M451.318 50.3965C451.318 51.1465 451.453 51.844 451.723 52.489C451.993 53.134 452.36 53.6965 452.825 54.1765C453.29 54.6565 453.845 55.0315 454.49 55.3015C455.135 55.5715 455.833 55.7065 456.583 55.7065C457.303 55.7065 457.985 55.5715 458.63 55.3015C459.275 55.0315 459.83 54.6565 460.295 54.1765C460.76 53.6965 461.135 53.1415 461.42 52.5115C461.705 51.8815 461.848 51.2065 461.848 50.4865C461.848 49.7665 461.705 49.084 461.42 48.439C461.135 47.794 460.76 47.2315 460.295 46.7515C459.83 46.2715 459.275 45.8965 458.63 45.6265C457.985 45.3565 457.303 45.2215 456.583 45.2215C455.833 45.2215 455.135 45.3565 454.49 45.6265C453.845 45.8965 453.29 46.2715 452.825 46.7515C452.36 47.2315 451.993 47.779 451.723 48.394C451.453 49.009 451.318 49.6765 451.318 50.3965ZM461.578 38.9215L469.768 38.9215L469.768 62.0065L461.578 62.0065L461.578 59.4415C459.838 61.6315 457.483 62.7265 454.513 62.7265C452.833 62.7265 451.288 62.419 449.878 61.804C448.468 61.189 447.238 60.3265 446.188 59.2165C445.138 58.1065 444.32 56.8015 443.735 55.3015C443.15 53.8015 442.858 52.1665 442.858 50.3965C442.858 48.7465 443.143 47.179 443.713 45.694C444.283 44.209 445.078 42.9115 446.098 41.8015C447.118 40.6915 448.333 39.814 449.743 39.169C451.153 38.524 452.713 38.2015 454.423 38.2015C457.303 38.2015 459.688 39.2065 461.578 41.2165L461.578 38.9215Z"/>
<path d="M496.033 50.5315C496.033 49.8115 495.906 49.129 495.651 48.484C495.396 47.839 495.028 47.2765 494.548 46.7965C494.068 46.3165 493.506 45.934 492.861 45.649C492.216 45.364 491.518 45.2215 490.768 45.2215C490.048 45.2215 489.373 45.3565 488.743 45.6265C488.113 45.8965 487.566 46.2715 487.101 46.7515C486.636 47.2315 486.261 47.794 485.976 48.439C485.691 49.084 485.548 49.7665 485.548 50.4865C485.548 51.2065 485.683 51.8815 485.953 52.5115C486.223 53.1415 486.598 53.689 487.078 54.154C487.558 54.619 488.121 54.994 488.766 55.279C489.411 55.564 490.093 55.7065 490.813 55.7065C491.533 55.7065 492.208 55.5715 492.838 55.3015C493.468 55.0315 494.016 54.6565 494.481 54.1765C494.946 53.6965 495.321 53.1415 495.606 52.5115C495.891 51.8815 496.033 51.2215 496.033 50.5315ZM485.773 73.5265L477.628 73.5265L477.628 38.9215L485.773 38.9215L485.773 41.4865C487.513 39.2965 489.883 38.2015 492.883 38.2015C494.533 38.2015 496.071 38.524 497.496 39.169C498.921 39.814 500.158 40.6915 501.208 41.8015C502.258 42.9115 503.076 44.2165 503.661 45.7165C504.246 47.2165 504.538 48.8215 504.538 50.5315C504.538 52.2415 504.246 53.8315 503.661 55.3015C503.076 56.7715 502.266 58.0615 501.231 59.1715C500.196 60.2815 498.973 61.1515 497.563 61.7815C496.153 62.4115 494.623 62.7265 492.973 62.7265C490.093 62.7265 487.693 61.7365 485.773 59.7565L485.773 73.5265Z"/>
<path d="M511.499 24.6565L519.644 24.6565L519.644 41.8465C520.754 40.4965 521.879 39.589 523.019 39.124C524.159 38.659 525.494 38.4265 527.024 38.4265C529.934 38.4265 532.132 39.229 533.617 40.834C535.102 42.439 535.844 44.6065 535.844 47.3365L535.844 62.0065L527.699 62.0065L527.699 50.3515C527.699 49.1815 527.609 48.2365 527.429 47.5165C527.249 46.7965 526.949 46.2415 526.529 45.8515C525.809 45.2215 524.939 44.9065 523.919 44.9065C522.539 44.9065 521.482 45.319 520.747 46.144C520.012 46.969 519.644 48.1465 519.644 49.6765L519.644 62.0065L511.499 62.0065L511.499 24.6565Z"/>
</g>
<g class="vng-logo-foreground" fill="#2d355d" opacity="1" stroke="none">
<path d="M105.841 36.4506L111.331 48.2856L116.911 36.4506L126.001 36.4506L113.986 59.5356L108.541 59.5356L96.6614 36.4506L105.841 36.4506Z"/>
<path d="M128.822 44.1006L141.737 44.1006L141.737 50.8956L128.822 50.8956L128.822 44.1006Z"/>
<path d="M146.853 36.4506L154.998 36.4506L154.998 39.3756C156.108 38.0256 157.233 37.1181 158.373 36.6531C159.513 36.1881 160.848 35.9556 162.378 35.9556C163.998 35.9556 165.385 36.2181 166.54 36.7431C167.695 37.2681 168.678 38.0106 169.488 38.9706C170.148 39.7506 170.598 40.6206 170.838 41.5806C171.078 42.5406 171.198 43.6356 171.198 44.8656L171.198 59.5356L163.053 59.5356L163.053 47.8806C163.053 46.7406 162.97 45.8181 162.805 45.1131C162.64 44.4081 162.348 43.8456 161.928 43.4256C161.568 43.0656 161.163 42.8106 160.713 42.6606C160.263 42.5106 159.783 42.4356 159.273 42.4356C157.893 42.4356 156.835 42.8481 156.1 43.6731C155.365 44.4981 154.998 45.6756 154.998 47.2056L154.998 59.5356L146.853 59.5356L146.853 36.4506Z"/>
<path d="M195.933 44.6406C195.663 43.5006 195.108 42.5856 194.268 41.8956C193.428 41.2056 192.408 40.8606 191.208 40.8606C189.948 40.8606 188.921 41.1906 188.126 41.8506C187.331 42.5106 186.828 43.4406 186.618 44.6406L195.933 44.6406ZM186.393 49.3656C186.393 52.8756 188.043 54.6306 191.343 54.6306C193.113 54.6306 194.448 53.9106 195.348 52.4706L203.223 52.4706C201.633 57.7506 197.658 60.3906 191.298 60.3906C189.348 60.3906 187.563 60.0981 185.943 59.5131C184.323 58.9281 182.936 58.0956 181.781 57.0156C180.626 55.9356 179.733 54.6456 179.103 53.1456C178.473 51.6456 178.158 49.9656 178.158 48.1056C178.158 46.1856 178.458 44.4531 179.058 42.9081C179.658 41.3631 180.513 40.0506 181.623 38.9706C182.733 37.8906 184.076 37.0581 185.651 36.4731C187.226 35.8881 189.003 35.5956 190.983 35.5956C192.933 35.5956 194.688 35.8881 196.248 36.4731C197.808 37.0581 199.128 37.9056 200.208 39.0156C201.288 40.1256 202.113 41.4831 202.683 43.0881C203.253 44.6931 203.538 46.5006 203.538 48.5106L203.538 49.3656L186.393 49.3656Z"/>
<path d="M219.904 43.2456L219.904 59.5356L211.759 59.5356L211.759 43.2456L209.059 43.2456L209.059 36.4506L211.759 36.4506L211.759 29.5206L219.904 29.5206L219.904 36.4506L224.539 36.4506L224.539 43.2456L219.904 43.2456Z"/>
<path d="M236.224 36.4506L241.759 48.6006L247.519 36.4506L252.649 36.4506L258.409 48.9606L264.214 36.4506L273.259 36.4506L261.199 59.5356L255.754 59.5356L249.994 46.8906L244.504 59.5356L238.969 59.5356L227.134 36.4506L236.224 36.4506Z"/>
<path d="M284.9 47.8806C284.9 48.6606 285.042 49.3731 285.327 50.0181C285.612 50.6631 285.987 51.2256 286.452 51.7056C286.917 52.1856 287.472 52.5606 288.117 52.8306C288.762 53.1006 289.445 53.2356 290.165 53.2356C290.885 53.2356 291.567 53.1006 292.212 52.8306C292.857 52.5606 293.412 52.1856 293.877 51.7056C294.342 51.2256 294.717 50.6631 295.002 50.0181C295.287 49.3731 295.43 48.6756 295.43 47.9256C295.43 47.2056 295.287 46.5231 295.002 45.8781C294.717 45.2331 294.342 44.6706 293.877 44.1906C293.412 43.7106 292.857 43.3356 292.212 43.0656C291.567 42.7956 290.885 42.6606 290.165 42.6606C289.445 42.6606 288.762 42.7956 288.117 43.0656C287.472 43.3356 286.917 43.7106 286.452 44.1906C285.987 44.6706 285.612 45.2256 285.327 45.8556C285.042 46.4856 284.9 47.1606 284.9 47.8806ZM276.305 47.7906C276.305 46.0806 276.65 44.4831 277.34 42.9981C278.03 41.5131 278.99 40.2231 280.22 39.1281C281.45 38.0331 282.912 37.1706 284.607 36.5406C286.302 35.9106 288.155 35.5956 290.165 35.5956C292.145 35.5956 293.982 35.9031 295.677 36.5181C297.372 37.1331 298.842 37.9881 300.087 39.0831C301.332 40.1781 302.3 41.4831 302.99 42.9981C303.68 44.5131 304.025 46.1856 304.025 48.0156C304.025 49.8456 303.672 51.5181 302.967 53.0331C302.262 54.5481 301.295 55.8531 300.065 56.9481C298.835 58.0431 297.357 58.8906 295.632 59.4906C293.907 60.0906 292.04 60.3906 290.03 60.3906C288.05 60.3906 286.22 60.0906 284.54 59.4906C282.86 58.8906 281.412 58.0356 280.197 56.9256C278.982 55.8156 278.03 54.4881 277.34 52.9431C276.65 51.3981 276.305 49.6806 276.305 47.7906Z"/>
<path d="M311.03 36.4506L319.175 36.4506L319.175 40.2306C320.045 38.8506 321.11 37.7931 322.37 37.0581C323.63 36.3231 325.1 35.9556 326.78 35.9556C326.99 35.9556 327.223 35.9556 327.478 35.9556C327.733 35.9556 328.025 35.9856 328.355 36.0456L328.355 43.8306C327.275 43.2906 326.105 43.0206 324.845 43.0206C322.955 43.0206 321.538 43.5831 320.593 44.7081C319.648 45.8331 319.175 47.4756 319.175 49.6356L319.175 59.5356L311.03 59.5356L311.03 36.4506Z"/>
<path d="M342.471 22.1856L342.471 44.7756L351.021 36.4506L362.181 36.4506L350.616 47.1156L362.856 59.5356L351.426 59.5356L342.471 50.1306L342.471 59.5356L334.326 59.5356L334.326 22.1856L342.471 22.1856Z"/>
<path d="M364.327 44.1006L377.242 44.1006L377.242 50.8956L364.327 50.8956L364.327 44.1006Z"/>
<path d="M389.917 47.8806C389.917 48.6306 390.052 49.3281 390.322 49.9731C390.592 50.6181 390.96 51.1806 391.425 51.6606C391.89 52.1406 392.445 52.5156 393.09 52.7856C393.735 53.0556 394.432 53.1906 395.182 53.1906C395.902 53.1906 396.585 53.0556 397.23 52.7856C397.875 52.5156 398.43 52.1406 398.895 51.6606C399.36 51.1806 399.735 50.6181 400.02 49.9731C400.305 49.3281 400.447 48.6456 400.447 47.9256C400.447 47.1756 400.305 46.4856 400.02 45.8556C399.735 45.2256 399.352 44.6706 398.872 44.1906C398.392 43.7106 397.83 43.3356 397.185 43.0656C396.54 42.7956 395.872 42.6606 395.182 42.6606C394.462 42.6606 393.787 42.8031 393.157 43.0881C392.527 43.3731 391.972 43.7481 391.492 44.2131C391.012 44.6781 390.63 45.2256 390.345 45.8556C390.06 46.4856 389.917 47.1606 389.917 47.8806ZM408.187 36.4506L408.187 57.9606C408.187 59.2506 408.112 60.4056 407.962 61.4256C407.812 62.4456 407.602 63.3456 407.332 64.1256C406.972 65.1156 406.41 66.0381 405.645 66.8931C404.88 67.7481 403.957 68.4906 402.877 69.1206C401.797 69.7506 400.575 70.2456 399.21 70.6056C397.845 70.9656 396.367 71.1456 394.777 71.1456C392.977 71.1456 391.327 70.9206 389.827 70.4706C388.327 70.0206 387.015 69.3981 385.89 68.6031C384.765 67.8081 383.842 66.8781 383.122 65.8131C382.402 64.7481 381.922 63.5856 381.682 62.3256L390.862 62.3256C391.432 63.8556 392.722 64.6206 394.732 64.6206C396.442 64.6206 397.755 64.1406 398.67 63.1806C399.585 62.2206 400.042 60.8856 400.042 59.1756L400.042 56.9706C399.442 57.5406 398.865 58.0131 398.31 58.3881C397.755 58.7631 397.192 59.0706 396.622 59.3106C396.052 59.5506 395.452 59.7231 394.822 59.8281C394.192 59.9331 393.502 59.9856 392.752 59.9856C391.102 59.9856 389.587 59.7006 388.207 59.1306C386.827 58.5606 385.635 57.7656 384.63 56.7456C383.625 55.7256 382.845 54.5031 382.29 53.0781C381.735 51.6531 381.457 50.0706 381.457 48.3306C381.457 46.5606 381.757 44.9181 382.357 43.4031C382.957 41.8881 383.775 40.5681 384.81 39.4431C385.845 38.3181 387.075 37.4331 388.5 36.7881C389.925 36.1431 391.477 35.8206 393.157 35.8206C395.887 35.8206 398.182 36.8406 400.042 38.8806L400.042 36.4506L408.187 36.4506Z"/>
<path d="M416.858 36.4506L425.003 36.4506L425.003 40.2306C425.873 38.8506 426.938 37.7931 428.198 37.0581C429.458 36.3231 430.928 35.9556 432.608 35.9556C432.818 35.9556 433.05 35.9556 433.305 35.9556C433.56 35.9556 433.853 35.9856 434.183 36.0456L434.183 43.8306C433.103 43.2906 431.933 43.0206 430.673 43.0206C428.783 43.0206 427.365 43.5831 426.42 44.7081C425.475 45.8331 425.003 47.4756 425.003 49.6356L425.003 59.5356L416.858 59.5356L416.858 36.4506Z"/>
<path d="M447.983 47.9256C447.983 48.6756 448.118 49.3731 448.388 50.0181C448.658 50.6631 449.026 51.2256 449.491 51.7056C449.956 52.1856 450.511 52.5606 451.156 52.8306C451.801 53.1006 452.498 53.2356 453.248 53.2356C453.968 53.2356 454.651 53.1006 455.296 52.8306C455.941 52.5606 456.496 52.1856 456.961 51.7056C457.426 51.2256 457.801 50.6706 458.086 50.0406C458.371 49.4106 458.513 48.7356 458.513 48.0156C458.513 47.2956 458.371 46.6131 458.086 45.9681C457.801 45.3231 457.426 44.7606 456.961 44.2806C456.496 43.8006 455.941 43.4256 455.296 43.1556C454.651 42.8856 453.968 42.7506 453.248 42.7506C452.498 42.7506 451.801 42.8856 451.156 43.1556C450.511 43.4256 449.956 43.8006 449.491 44.2806C449.026 44.7606 448.658 45.3081 448.388 45.9231C448.118 46.5381 447.983 47.2056 447.983 47.9256ZM458.243 36.4506L466.433 36.4506L466.433 59.5356L458.243 59.5356L458.243 56.9706C456.503 59.1606 454.148 60.2556 451.178 60.2556C449.498 60.2556 447.953 59.9481 446.543 59.3331C445.133 58.7181 443.903 57.8556 442.853 56.7456C441.803 55.6356 440.986 54.3306 440.401 52.8306C439.816 51.3306 439.523 49.6956 439.523 47.9256C439.523 46.2756 439.808 44.7081 440.378 43.2231C440.948 41.7381 441.743 40.4406 442.763 39.3306C443.783 38.2206 444.998 37.3431 446.408 36.6981C447.818 36.0531 449.378 35.7306 451.088 35.7306C453.968 35.7306 456.353 36.7356 458.243 38.7456L458.243 36.4506Z"/>
<path d="M492.699 48.0606C492.699 47.3406 492.571 46.6581 492.316 46.0131C492.061 45.3681 491.694 44.8056 491.214 44.3256C490.734 43.8456 490.171 43.4631 489.526 43.1781C488.881 42.8931 488.184 42.7506 487.434 42.7506C486.714 42.7506 486.039 42.8856 485.409 43.1556C484.779 43.4256 484.231 43.8006 483.766 44.2806C483.301 44.7606 482.926 45.3231 482.641 45.9681C482.356 46.6131 482.214 47.2956 482.214 48.0156C482.214 48.7356 482.349 49.4106 482.619 50.0406C482.889 50.6706 483.264 51.2181 483.744 51.6831C484.224 52.1481 484.786 52.5231 485.431 52.8081C486.076 53.0931 486.759 53.2356 487.479 53.2356C488.199 53.2356 488.874 53.1006 489.504 52.8306C490.134 52.5606 490.681 52.1856 491.146 51.7056C491.611 51.2256 491.986 50.6706 492.271 50.0406C492.556 49.4106 492.699 48.7506 492.699 48.0606ZM482.439 71.0556L474.294 71.0556L474.294 36.4506L482.439 36.4506L482.439 39.0156C484.179 36.8256 486.549 35.7306 489.549 35.7306C491.199 35.7306 492.736 36.0531 494.161 36.6981C495.586 37.3431 496.824 38.2206 497.874 39.3306C498.924 40.4406 499.741 41.7456 500.326 43.2456C500.911 44.7456 501.204 46.3506 501.204 48.0606C501.204 49.7706 500.911 51.3606 500.326 52.8306C499.741 54.3006 498.931 55.5906 497.896 56.7006C496.861 57.8106 495.639 58.6806 494.229 59.3106C492.819 59.9406 491.289 60.2556 489.639 60.2556C486.759 60.2556 484.359 59.2656 482.439 57.2856L482.439 71.0556Z"/>
<path d="M508.165 22.1856L516.31 22.1856L516.31 39.3756C517.42 38.0256 518.545 37.1181 519.685 36.6531C520.825 36.1881 522.16 35.9556 523.69 35.9556C526.6 35.9556 528.797 36.7581 530.282 38.3631C531.767 39.9681 532.51 42.1356 532.51 44.8656L532.51 59.5356L524.365 59.5356L524.365 47.8806C524.365 46.7106 524.275 45.7656 524.095 45.0456C523.915 44.3256 523.615 43.7706 523.195 43.3806C522.475 42.7506 521.605 42.4356 520.585 42.4356C519.205 42.4356 518.147 42.8481 517.412 43.6731C516.677 44.4981 516.31 45.6756 516.31 47.2056L516.31 59.5356L508.165 59.5356L508.165 22.1856Z"/>
</g>
</g>
</svg>
