<svg width="540" height="100" viewBox="0 0 540 100" fill="none" xmlns="http://www.w3.org/2000/svg">
<circle cx="18" cy="19" r="13" fill="#DBE2ED"/>
<circle cx="18" cy="84" r="13" fill="#DBE2ED"/>
<circle cx="68" cy="52" r="13" fill="#DBE2ED"/>
<line x1="23.3066" y1="75.9599" x2="59.3066" y2="51.9599" stroke="#4065D0" stroke-width="2.5"/>
<line x1="23.6865" y1="19.9554" x2="58.6865" y2="42.9554" stroke="#4065D0" stroke-width="2.5"/>
<line x1="21.6865" y1="23.9554" x2="56.6865" y2="46.9554" stroke="#4065D0" stroke-width="2.5"/>
<circle cx="16" cy="17" r="13" fill="#4065D0"/>
<circle cx="66" cy="49" r="13" fill="#4065D0"/>
<circle cx="16" cy="81" r="13" fill="#4065D0"/>
<path d="M112.657 63.2692L102 40.7221H110.497L116.833 54.8619L114.961 55.0317L121.489 40.7221H129.89L118.705 63.2692H112.657Z" fill="#DBE2ED"/>
<path d="M150.927 63.2692V40.7222H158.224L158.464 45.308L156.928 45.8175C157.28 44.7985 157.904 43.8785 158.8 43.0575C159.728 42.2083 160.832 41.5289 162.112 41.0194C163.392 40.5099 164.736 40.2551 166.144 40.2551C168.064 40.2551 169.68 40.6089 170.992 41.3166C172.305 41.996 173.297 43.0292 173.969 44.4163C174.641 45.7751 174.977 47.4452 174.977 49.4268V63.2692H167.248V49.9788C167.248 49.0729 167.104 48.3228 166.816 47.7283C166.528 47.1339 166.08 46.6951 165.472 46.412C164.896 46.1006 164.176 45.9591 163.312 45.9874C162.64 45.9874 162.016 46.0865 161.44 46.2846C160.864 46.4545 160.368 46.7234 159.952 47.0914C159.536 47.4311 159.2 47.8274 158.944 48.2803C158.72 48.7332 158.608 49.2286 158.608 49.7665V63.2692H154.815C153.919 63.2692 153.151 63.2692 152.511 63.2692C151.871 63.2692 151.343 63.2692 150.927 63.2692Z" fill="#DBE2ED"/>
<path d="M196.342 63.6939C193.526 63.6939 191.078 63.1985 188.998 62.2077C186.917 61.1886 185.301 59.8157 184.149 58.0889C182.997 56.3339 182.421 54.3382 182.421 52.1019C182.421 50.3751 182.741 48.7899 183.381 47.3462C184.021 45.9025 184.917 44.6569 186.069 43.6095C187.221 42.5339 188.582 41.7129 190.15 41.1468C191.75 40.5523 193.494 40.2551 195.382 40.2551C197.174 40.2551 198.806 40.5382 200.278 41.1043C201.782 41.6705 203.079 42.4631 204.167 43.4822C205.255 44.5012 206.087 45.7043 206.663 47.0914C207.239 48.4785 207.495 49.9929 207.431 51.6348L207.383 53.4606H187.077L185.973 49.6391H201.142L200.326 50.4459V49.5966C200.262 48.8889 200.006 48.2662 199.558 47.7283C199.142 47.1622 198.582 46.7234 197.878 46.412C197.174 46.1006 196.374 45.9449 195.478 45.9449C194.23 45.9449 193.158 46.1714 192.262 46.6243C191.398 47.0489 190.742 47.6859 190.294 48.5351C189.846 49.356 189.622 50.3751 189.622 51.5923C189.622 52.8379 189.91 53.9277 190.486 54.8619C191.094 55.7677 191.958 56.4754 193.078 56.9849C194.23 57.4945 195.59 57.7492 197.158 57.7492C198.246 57.7492 199.206 57.6077 200.038 57.3246C200.902 57.0415 201.83 56.5603 202.823 55.8809L206.423 60.3819C205.431 61.1462 204.375 61.7689 203.255 62.2502C202.134 62.7314 200.982 63.0852 199.798 63.3117C198.646 63.5665 197.494 63.6939 196.342 63.6939Z" fill="#DBE2ED"/>
<path d="M215.807 63.2692V35.0323H223.488V63.2692H215.807ZM212.931 46.6667V40.7221H228.432V46.6667H219.864H212.931Z" fill="#DBE2ED"/>
<path d="M293.708 63.6939C291.052 63.6939 288.684 63.1843 286.604 62.1652C284.556 61.1462 282.924 59.7591 281.708 58.004C280.524 56.2489 279.931 54.2391 279.931 51.9745C279.931 49.7099 280.524 47.7 281.708 45.9449C282.924 44.1899 284.556 42.8028 286.604 41.7837C288.684 40.7646 291.052 40.2551 293.708 40.2551C296.365 40.2551 298.717 40.7646 300.765 41.7837C302.845 42.8028 304.477 44.1899 305.661 45.9449C306.845 47.7 307.437 49.7099 307.437 51.9745C307.437 54.2391 306.845 56.2489 305.661 58.004C304.477 59.7591 302.845 61.1462 300.765 62.1652C298.717 63.1843 296.365 63.6939 293.708 63.6939ZM293.708 57.8342C294.86 57.8342 295.885 57.5794 296.781 57.0699C297.677 56.5603 298.381 55.8668 298.893 54.9892C299.405 54.1117 299.645 53.1068 299.613 51.9745C299.645 50.8422 299.405 49.8372 298.893 48.9597C298.381 48.0539 297.677 47.3462 296.781 46.8366C295.885 46.3271 294.86 46.0723 293.708 46.0723C292.556 46.0723 291.516 46.3271 290.588 46.8366C289.692 47.3462 288.988 48.0539 288.476 48.9597C287.964 49.8372 287.724 50.8422 287.756 51.9745C287.724 53.1068 287.964 54.1117 288.476 54.9892C288.988 55.8668 289.692 56.5603 290.588 57.0699C291.516 57.5794 292.556 57.8342 293.708 57.8342Z" fill="#DBE2ED"/>
<path d="M314.938 63.2692V40.7222H322.234L322.57 48.068L321.13 46.6668C321.514 45.4495 322.138 44.3597 323.002 43.3972C323.898 42.4348 324.938 41.6705 326.122 41.1043C327.307 40.5382 328.571 40.2551 329.915 40.2551C330.491 40.2551 331.019 40.2975 331.499 40.3825C332.011 40.4674 332.475 40.5665 332.891 40.6797L330.779 48.1954C330.427 47.9972 329.947 47.8415 329.339 47.7283C328.763 47.5868 328.155 47.516 327.515 47.516C326.81 47.516 326.154 47.6292 325.546 47.8557C324.938 48.0539 324.426 48.3511 324.01 48.7474C323.594 49.1437 323.258 49.6108 323.002 50.1486C322.778 50.6865 322.666 51.2951 322.666 51.9745V63.2692H314.938Z" fill="#DBE2ED"/>
<path d="M345.74 56.6452L342.908 51.5498L354.812 40.7221H364.941L345.74 56.6452ZM338.347 63.2692V27H346.028V63.2692H338.347ZM355.628 63.2692L346.652 52.9935L352.076 49.2569L364.701 63.2692H355.628Z" fill="#DBE2ED"/>
<path d="M420.993 63.2692V40.7222H428.289L428.625 48.068L427.185 46.6668C427.569 45.4495 428.193 44.3597 429.057 43.3972C429.953 42.4348 430.993 41.6705 432.177 41.1043C433.361 40.5382 434.625 40.2551 435.97 40.2551C436.546 40.2551 437.074 40.2975 437.554 40.3825C438.066 40.4674 438.53 40.5665 438.946 40.6797L436.834 48.1954C436.482 47.9972 436.002 47.8415 435.394 47.7283C434.817 47.5868 434.209 47.516 433.569 47.516C432.865 47.516 432.209 47.6292 431.601 47.8557C430.993 48.0539 430.481 48.3511 430.065 48.7474C429.649 49.1437 429.313 49.6108 429.057 50.1486C428.833 50.6865 428.721 51.2951 428.721 51.9745V63.2692H420.993Z" fill="#DBE2ED"/>
<path d="M454.491 63.6514C452.347 63.6514 450.426 63.156 448.73 62.1652C447.066 61.1462 445.738 59.7591 444.746 58.004C443.754 56.2206 443.258 54.2108 443.258 51.9745C443.258 49.6815 443.754 47.6575 444.746 45.9025C445.738 44.1474 447.098 42.7745 448.826 41.7837C450.555 40.7646 452.523 40.2551 454.731 40.2551C455.947 40.2551 457.051 40.4108 458.043 40.7222C459.067 41.0335 459.963 41.4723 460.731 42.0385C461.499 42.5763 462.155 43.2132 462.699 43.9492C463.243 44.6569 463.643 45.4212 463.899 46.2422L462.315 46.0723V40.7222H469.948V63.2692H462.171V57.8342L463.899 57.7917C463.643 58.5843 463.227 59.3345 462.651 60.0422C462.075 60.7499 461.371 61.3726 460.539 61.9105C459.707 62.4483 458.779 62.8729 457.755 63.1843C456.731 63.4957 455.643 63.6514 454.491 63.6514ZM456.603 57.9191C457.787 57.9191 458.811 57.6785 459.675 57.1972C460.539 56.716 461.211 56.0366 461.691 55.1591C462.171 54.2532 462.411 53.1917 462.411 51.9745C462.411 50.7572 462.171 49.7099 461.691 48.8323C461.211 47.9265 460.539 47.2329 459.675 46.7517C458.811 46.2422 457.787 45.9874 456.603 45.9874C455.451 45.9874 454.443 46.2422 453.579 46.7517C452.747 47.2329 452.091 47.9265 451.611 48.8323C451.131 49.7099 450.891 50.7572 450.891 51.9745C450.891 53.1917 451.131 54.2532 451.611 55.1591C452.091 56.0366 452.747 56.716 453.579 57.1972C454.443 57.6785 455.451 57.9191 456.603 57.9191Z" fill="#DBE2ED"/>
<path d="M477.948 72.6108V40.7221H485.245L485.533 45.7751L484.093 45.3929C484.317 44.4588 484.861 43.6095 485.725 42.8452C486.589 42.0809 487.677 41.4723 488.989 41.0194C490.333 40.5381 491.741 40.2975 493.213 40.2975C495.389 40.2975 497.326 40.8071 499.022 41.8261C500.718 42.8169 502.046 44.1898 503.006 45.9449C503.998 47.6717 504.494 49.6815 504.494 51.9744C504.494 54.2391 503.998 56.2489 503.006 58.004C502.046 59.7591 500.702 61.1461 498.974 62.1652C497.278 63.156 495.325 63.6514 493.117 63.6514C491.677 63.6514 490.301 63.4108 488.989 62.9295C487.677 62.4483 486.573 61.7972 485.677 60.9763C484.781 60.1554 484.189 59.2637 483.901 58.3012L485.677 57.7068V72.6108H477.948ZM491.245 57.9191C492.397 57.9191 493.405 57.6784 494.269 57.1972C495.133 56.6877 495.805 55.9941 496.285 55.1166C496.765 54.2391 497.005 53.1917 497.005 51.9744C497.005 50.7855 496.765 49.7523 496.285 48.8748C495.805 47.9689 495.133 47.2754 494.269 46.7941C493.437 46.2846 492.429 46.0298 491.245 46.0298C490.061 46.0298 489.037 46.2704 488.173 46.7517C487.309 47.2329 486.637 47.9264 486.157 48.8323C485.677 49.7381 485.437 50.7855 485.437 51.9744C485.437 53.1917 485.677 54.2391 486.157 55.1166C486.637 55.9941 487.309 56.6877 488.173 57.1972C489.037 57.6784 490.061 57.9191 491.245 57.9191Z" fill="#DBE2ED"/>
<path d="M511.95 63.2692V27H519.487V45.308L517.951 45.8175C518.303 44.7984 518.927 43.8784 519.823 43.0575C520.751 42.2083 521.855 41.5289 523.135 41.0194C524.415 40.5098 525.759 40.2551 527.167 40.2551C529.088 40.2551 530.704 40.6089 532.016 41.3166C533.328 41.996 534.32 43.0292 534.992 44.4163C535.664 45.7751 536 47.4452 536 49.4268V63.2692H528.272V49.9788C528.272 49.0729 528.128 48.3228 527.84 47.7283C527.551 47.1338 527.103 46.6951 526.495 46.412C525.919 46.1006 525.199 45.9591 524.335 45.9874C523.663 45.9874 523.039 46.0864 522.463 46.2846C521.887 46.4544 521.391 46.7234 520.975 47.0914C520.559 47.4311 520.223 47.8274 519.967 48.2803C519.743 48.7332 519.631 49.2286 519.631 49.7664V63.2692H515.839C514.943 63.2692 514.175 63.2692 513.535 63.2692C512.895 63.2692 512.367 63.2692 511.95 63.2692Z" fill="#DBE2ED"/>
<path d="M398.776 73C396.713 73 394.649 72.7315 392.586 72.1945C390.554 71.6574 388.903 70.9649 387.633 70.117L390.3 65.3685C390.966 65.7642 391.697 66.1034 392.49 66.386C393.316 66.6969 394.173 66.9372 395.062 67.1068C395.951 67.2764 396.856 67.3611 397.776 67.3611C399.396 67.3611 400.713 67.1492 401.729 66.7252C402.745 66.3012 403.507 65.6511 404.015 64.7749C404.523 63.927 404.777 62.8529 404.777 61.5527V57.7793L406.253 57.9913C406.031 58.9241 405.475 59.772 404.586 60.5352C403.729 61.2983 402.666 61.9202 401.396 62.4007C400.126 62.8529 398.776 63.079 397.348 63.079C395.062 63.079 393.014 62.6126 391.205 61.6799C389.427 60.7189 388.014 59.4046 386.966 57.7369C385.95 56.0411 385.442 54.0908 385.442 51.8861C385.442 49.6249 385.95 47.6322 386.966 45.9081C387.982 44.1557 389.379 42.7848 391.157 41.7955C392.935 40.778 394.935 40.2692 397.157 40.2692C398.11 40.2692 399.015 40.3682 399.872 40.566C400.761 40.7639 401.57 41.0324 402.301 41.3716C403.062 41.6825 403.729 42.0641 404.301 42.5163C404.904 42.9403 405.38 43.4066 405.729 43.9154C406.11 44.4242 406.364 44.9471 406.491 45.4841L404.92 45.8233L405.205 40.7356H412.444V61.4255C412.444 63.2627 412.127 64.888 411.492 66.3012C410.888 67.7427 409.984 68.9581 408.777 69.9474C407.602 70.9649 406.174 71.7281 404.491 72.2368C402.808 72.7456 400.904 73 398.776 73ZM398.967 57.8217C400.205 57.8217 401.269 57.5815 402.158 57.101C403.078 56.5922 403.777 55.8997 404.253 55.0235C404.761 54.1473 405.015 53.1156 405.015 51.9285C405.015 50.7414 404.761 49.7097 404.253 48.8335C403.777 47.929 403.078 47.2365 402.158 46.756C401.269 46.2473 400.205 45.9929 398.967 45.9929C397.761 45.9929 396.713 46.2473 395.824 46.756C394.935 47.2365 394.237 47.929 393.729 48.8335C393.252 49.7097 393.014 50.7414 393.014 51.9285C393.014 53.1156 393.252 54.1473 393.729 55.0235C394.237 55.8997 394.935 56.5922 395.824 57.101C396.713 57.5815 397.761 57.8217 398.967 57.8217Z" fill="#DBE2ED"/>
<path d="M368.441 54.4231V48.2308H381.442V54.4231H368.441Z" fill="#DBE2ED"/>
<path d="M243.439 63.2692L233.933 41.1538H243.113L248.437 55.5226L247.296 55.356L253.272 41.1539H258.379L264.68 55.3977L263.431 55.481L268.755 41.1538H277.935L268.103 63.2692H261.692L255.445 48.3591L256.097 48.4424L249.85 63.2692H243.439Z" fill="#DBE2ED"/>
<path d="M132.426 54.4231V48.2308H145.427V54.4231H132.426Z" fill="#DBE2ED"/>
<path d="M109.657 60.2692L99 37.7221H107.497L113.833 51.8619L111.961 52.0317L118.489 37.7221H126.89L115.705 60.2692H109.657Z" fill="#2D355D"/>
<path d="M147.927 60.2692V37.7222H155.224L155.464 42.308L153.928 42.8175C154.28 41.7985 154.904 40.8785 155.8 40.0575C156.728 39.2083 157.832 38.5289 159.112 38.0194C160.392 37.5099 161.736 37.2551 163.144 37.2551C165.064 37.2551 166.68 37.6089 167.992 38.3166C169.305 38.996 170.297 40.0292 170.969 41.4163C171.641 42.7751 171.977 44.4452 171.977 46.4268V60.2692H164.248V46.9788C164.248 46.0729 164.104 45.3228 163.816 44.7283C163.528 44.1339 163.08 43.6951 162.472 43.412C161.896 43.1006 161.176 42.9591 160.312 42.9874C159.64 42.9874 159.016 43.0865 158.44 43.2846C157.864 43.4545 157.368 43.7234 156.952 44.0914C156.536 44.4311 156.2 44.8274 155.944 45.2803C155.72 45.7332 155.608 46.2286 155.608 46.7665V60.2692H151.815C150.919 60.2692 150.151 60.2692 149.511 60.2692C148.871 60.2692 148.343 60.2692 147.927 60.2692Z" fill="#2D355D"/>
<path d="M193.342 60.6939C190.526 60.6939 188.078 60.1985 185.998 59.2077C183.917 58.1886 182.301 56.8157 181.149 55.0889C179.997 53.3339 179.421 51.3382 179.421 49.1019C179.421 47.3751 179.741 45.7899 180.381 44.3462C181.021 42.9025 181.917 41.6569 183.069 40.6095C184.221 39.5339 185.582 38.7129 187.15 38.1468C188.75 37.5523 190.494 37.2551 192.382 37.2551C194.174 37.2551 195.806 37.5382 197.278 38.1043C198.782 38.6705 200.079 39.4631 201.167 40.4822C202.255 41.5012 203.087 42.7043 203.663 44.0914C204.239 45.4785 204.495 46.9929 204.431 48.6348L204.383 50.4606H184.077L182.973 46.6391H198.142L197.326 47.4459V46.5966C197.262 45.8889 197.006 45.2662 196.558 44.7283C196.142 44.1622 195.582 43.7234 194.878 43.412C194.174 43.1006 193.374 42.9449 192.478 42.9449C191.23 42.9449 190.158 43.1714 189.262 43.6243C188.398 44.0489 187.742 44.6859 187.294 45.5351C186.846 46.356 186.622 47.3751 186.622 48.5923C186.622 49.8379 186.91 50.9277 187.486 51.8619C188.094 52.7677 188.958 53.4754 190.078 53.9849C191.23 54.4945 192.59 54.7492 194.158 54.7492C195.246 54.7492 196.206 54.6077 197.038 54.3246C197.902 54.0415 198.83 53.5603 199.823 52.8809L203.423 57.3819C202.431 58.1462 201.375 58.7689 200.255 59.2502C199.134 59.7314 197.982 60.0852 196.798 60.3117C195.646 60.5665 194.494 60.6939 193.342 60.6939Z" fill="#2D355D"/>
<path d="M212.807 60.2692V32.0323H220.488V60.2692H212.807ZM209.931 43.6667V37.7221H225.432V43.6667H216.864H209.931Z" fill="#2D355D"/>
<path d="M290.708 60.6939C288.052 60.6939 285.684 60.1843 283.604 59.1652C281.556 58.1462 279.924 56.7591 278.708 55.004C277.524 53.2489 276.931 51.2391 276.931 48.9745C276.931 46.7099 277.524 44.7 278.708 42.9449C279.924 41.1899 281.556 39.8028 283.604 38.7837C285.684 37.7646 288.052 37.2551 290.708 37.2551C293.365 37.2551 295.717 37.7646 297.765 38.7837C299.845 39.8028 301.477 41.1899 302.661 42.9449C303.845 44.7 304.437 46.7099 304.437 48.9745C304.437 51.2391 303.845 53.2489 302.661 55.004C301.477 56.7591 299.845 58.1462 297.765 59.1652C295.717 60.1843 293.365 60.6939 290.708 60.6939ZM290.708 54.8342C291.86 54.8342 292.885 54.5794 293.781 54.0699C294.677 53.5603 295.381 52.8668 295.893 51.9892C296.405 51.1117 296.645 50.1068 296.613 48.9745C296.645 47.8422 296.405 46.8372 295.893 45.9597C295.381 45.0539 294.677 44.3462 293.781 43.8366C292.885 43.3271 291.86 43.0723 290.708 43.0723C289.556 43.0723 288.516 43.3271 287.588 43.8366C286.692 44.3462 285.988 45.0539 285.476 45.9597C284.964 46.8372 284.724 47.8422 284.756 48.9745C284.724 50.1068 284.964 51.1117 285.476 51.9892C285.988 52.8668 286.692 53.5603 287.588 54.0699C288.516 54.5794 289.556 54.8342 290.708 54.8342Z" fill="#2D355D"/>
<path d="M311.938 60.2692V37.7222H319.234L319.57 45.068L318.13 43.6668C318.514 42.4495 319.138 41.3597 320.002 40.3972C320.898 39.4348 321.938 38.6705 323.122 38.1043C324.307 37.5382 325.571 37.2551 326.915 37.2551C327.491 37.2551 328.019 37.2975 328.499 37.3825C329.011 37.4674 329.475 37.5665 329.891 37.6797L327.779 45.1954C327.427 44.9972 326.947 44.8415 326.339 44.7283C325.763 44.5868 325.155 44.516 324.515 44.516C323.81 44.516 323.154 44.6292 322.546 44.8557C321.938 45.0539 321.426 45.3511 321.01 45.7474C320.594 46.1437 320.258 46.6108 320.002 47.1486C319.778 47.6865 319.666 48.2951 319.666 48.9745V60.2692H311.938Z" fill="#2D355D"/>
<path d="M342.74 53.6452L339.908 48.5498L351.812 37.7221H361.941L342.74 53.6452ZM335.347 60.2692V24H343.028V60.2692H335.347ZM352.628 60.2692L343.652 49.9935L349.076 46.2569L361.701 60.2692H352.628Z" fill="#2D355D"/>
<path d="M417.993 60.2692V37.7222H425.289L425.625 45.068L424.185 43.6668C424.569 42.4495 425.193 41.3597 426.057 40.3972C426.953 39.4348 427.993 38.6705 429.177 38.1043C430.361 37.5382 431.625 37.2551 432.97 37.2551C433.546 37.2551 434.074 37.2975 434.554 37.3825C435.066 37.4674 435.53 37.5665 435.946 37.6797L433.834 45.1954C433.482 44.9972 433.002 44.8415 432.394 44.7283C431.817 44.5868 431.209 44.516 430.569 44.516C429.865 44.516 429.209 44.6292 428.601 44.8557C427.993 45.0539 427.481 45.3511 427.065 45.7474C426.649 46.1437 426.313 46.6108 426.057 47.1486C425.833 47.6865 425.721 48.2951 425.721 48.9745V60.2692H417.993Z" fill="#2D355D"/>
<path d="M451.491 60.6514C449.347 60.6514 447.426 60.156 445.73 59.1652C444.066 58.1462 442.738 56.7591 441.746 55.004C440.754 53.2206 440.258 51.2108 440.258 48.9745C440.258 46.6815 440.754 44.6575 441.746 42.9025C442.738 41.1474 444.098 39.7745 445.826 38.7837C447.555 37.7646 449.523 37.2551 451.731 37.2551C452.947 37.2551 454.051 37.4108 455.043 37.7222C456.067 38.0335 456.963 38.4723 457.731 39.0385C458.499 39.5763 459.155 40.2132 459.699 40.9492C460.243 41.6569 460.643 42.4212 460.899 43.2422L459.315 43.0723V37.7222H466.948V60.2692H459.171V54.8342L460.899 54.7917C460.643 55.5843 460.227 56.3345 459.651 57.0422C459.075 57.7499 458.371 58.3726 457.539 58.9105C456.707 59.4483 455.779 59.8729 454.755 60.1843C453.731 60.4957 452.643 60.6514 451.491 60.6514ZM453.603 54.9191C454.787 54.9191 455.811 54.6785 456.675 54.1972C457.539 53.716 458.211 53.0366 458.691 52.1591C459.171 51.2532 459.411 50.1917 459.411 48.9745C459.411 47.7572 459.171 46.7099 458.691 45.8323C458.211 44.9265 457.539 44.2329 456.675 43.7517C455.811 43.2422 454.787 42.9874 453.603 42.9874C452.451 42.9874 451.443 43.2422 450.579 43.7517C449.747 44.2329 449.091 44.9265 448.611 45.8323C448.131 46.7099 447.891 47.7572 447.891 48.9745C447.891 50.1917 448.131 51.2532 448.611 52.1591C449.091 53.0366 449.747 53.716 450.579 54.1972C451.443 54.6785 452.451 54.9191 453.603 54.9191Z" fill="#2D355D"/>
<path d="M474.948 69.6108V37.7221H482.245L482.533 42.7751L481.093 42.3929C481.317 41.4588 481.861 40.6095 482.725 39.8452C483.589 39.0809 484.677 38.4723 485.989 38.0194C487.333 37.5381 488.741 37.2975 490.213 37.2975C492.389 37.2975 494.326 37.8071 496.022 38.8261C497.718 39.8169 499.046 41.1898 500.006 42.9449C500.998 44.6717 501.494 46.6815 501.494 48.9744C501.494 51.2391 500.998 53.2489 500.006 55.004C499.046 56.7591 497.702 58.1461 495.974 59.1652C494.278 60.156 492.325 60.6514 490.117 60.6514C488.677 60.6514 487.301 60.4108 485.989 59.9295C484.677 59.4483 483.573 58.7972 482.677 57.9763C481.781 57.1554 481.189 56.2637 480.901 55.3012L482.677 54.7068V69.6108H474.948ZM488.245 54.9191C489.397 54.9191 490.405 54.6784 491.269 54.1972C492.133 53.6877 492.805 52.9941 493.285 52.1166C493.765 51.2391 494.005 50.1917 494.005 48.9744C494.005 47.7855 493.765 46.7523 493.285 45.8748C492.805 44.9689 492.133 44.2754 491.269 43.7941C490.437 43.2846 489.429 43.0298 488.245 43.0298C487.061 43.0298 486.037 43.2704 485.173 43.7517C484.309 44.2329 483.637 44.9264 483.157 45.8323C482.677 46.7381 482.437 47.7855 482.437 48.9744C482.437 50.1917 482.677 51.2391 483.157 52.1166C483.637 52.9941 484.309 53.6877 485.173 54.1972C486.037 54.6784 487.061 54.9191 488.245 54.9191Z" fill="#2D355D"/>
<path d="M508.95 60.2692V24H516.487V42.308L514.951 42.8175C515.303 41.7984 515.927 40.8784 516.823 40.0575C517.751 39.2083 518.855 38.5289 520.135 38.0194C521.415 37.5098 522.759 37.2551 524.167 37.2551C526.088 37.2551 527.704 37.6089 529.016 38.3166C530.328 38.996 531.32 40.0292 531.992 41.4163C532.664 42.7751 533 44.4452 533 46.4268V60.2692H525.272V46.9788C525.272 46.0729 525.128 45.3228 524.84 44.7283C524.551 44.1338 524.103 43.6951 523.495 43.412C522.919 43.1006 522.199 42.9591 521.335 42.9874C520.663 42.9874 520.039 43.0864 519.463 43.2846C518.887 43.4544 518.391 43.7234 517.975 44.0914C517.559 44.4311 517.223 44.8274 516.967 45.2803C516.743 45.7332 516.631 46.2286 516.631 46.7664V60.2692H512.839C511.943 60.2692 511.175 60.2692 510.535 60.2692C509.895 60.2692 509.367 60.2692 508.95 60.2692Z" fill="#2D355D"/>
<path d="M395.776 70C393.713 70 391.649 69.7315 389.586 69.1945C387.554 68.6574 385.903 67.9649 384.633 67.117L387.3 62.3685C387.966 62.7642 388.697 63.1034 389.49 63.386C390.316 63.6969 391.173 63.9372 392.062 64.1068C392.951 64.2764 393.856 64.3611 394.776 64.3611C396.396 64.3611 397.713 64.1492 398.729 63.7252C399.745 63.3012 400.507 62.6511 401.015 61.7749C401.523 60.927 401.777 59.8529 401.777 58.5527V54.7793L403.253 54.9913C403.031 55.9241 402.475 56.772 401.586 57.5352C400.729 58.2983 399.666 58.9202 398.396 59.4007C397.126 59.8529 395.776 60.079 394.348 60.079C392.062 60.079 390.014 59.6126 388.205 58.6799C386.427 57.7189 385.014 56.4046 383.966 54.7369C382.95 53.0411 382.442 51.0908 382.442 48.8861C382.442 46.6249 382.95 44.6322 383.966 42.9081C384.982 41.1557 386.379 39.7848 388.157 38.7955C389.935 37.778 391.935 37.2692 394.157 37.2692C395.11 37.2692 396.015 37.3682 396.872 37.566C397.761 37.7639 398.57 38.0324 399.301 38.3716C400.062 38.6825 400.729 39.0641 401.301 39.5163C401.904 39.9403 402.38 40.4066 402.729 40.9154C403.11 41.4242 403.364 41.9471 403.491 42.4841L401.92 42.8233L402.205 37.7356H409.444V58.4255C409.444 60.2627 409.127 61.888 408.492 63.3012C407.888 64.7427 406.984 65.9581 405.777 66.9474C404.602 67.9649 403.174 68.7281 401.491 69.2368C399.808 69.7456 397.904 70 395.776 70ZM395.967 54.8217C397.205 54.8217 398.269 54.5815 399.158 54.101C400.078 53.5922 400.777 52.8997 401.253 52.0235C401.761 51.1473 402.015 50.1156 402.015 48.9285C402.015 47.7414 401.761 46.7097 401.253 45.8335C400.777 44.929 400.078 44.2365 399.158 43.756C398.269 43.2473 397.205 42.9929 395.967 42.9929C394.761 42.9929 393.713 43.2473 392.824 43.756C391.935 44.2365 391.237 44.929 390.729 45.8335C390.252 46.7097 390.014 47.7414 390.014 48.9285C390.014 50.1156 390.252 51.1473 390.729 52.0235C391.237 52.8997 391.935 53.5922 392.824 54.101C393.713 54.5815 394.761 54.8217 395.967 54.8217Z" fill="#2D355D"/>
<path d="M365.441 51.4231V45.2308H378.442V51.4231H365.441Z" fill="#2D355D"/>
<path d="M240.439 60.2692L230.933 38.1538H240.113L245.437 52.5226L244.296 52.356L250.272 38.1539H255.379L261.68 52.3977L260.431 52.481L265.755 38.1538H274.935L265.103 60.2692H258.692L252.445 45.3591L253.097 45.4424L246.85 60.2692H240.439Z" fill="#2D355D"/>
<path d="M129.426 51.4231V45.2308H142.427V51.4231H129.426Z" fill="#2D355D"/>
</svg>
