<svg width="540" height="100" viewBox="0 0 540 100" fill="none" xmlns="http://www.w3.org/2000/svg">
<line x1="23.4746" y1="75.7119" x2="59.4746" y2="51.7119" stroke="white" stroke-width="5.5"/>
<line x1="17.7542" y1="18.827" x2="67.7542" y2="51.827" stroke="white" stroke-width="10"/>
<circle cx="16" cy="17" r="12" fill="#4065D0" stroke="white" stroke-width="2"/>
<circle cx="66" cy="49" r="12" fill="#4065D0" stroke="white" stroke-width="2"/>
<circle cx="16" cy="81" r="12" fill="#4065D0" stroke="white" stroke-width="2"/>
<mask id="path-6-outside-1_3_440" maskUnits="userSpaceOnUse" x="95" y="22" width="440" height="50" fill="black">
<rect fill="white" x="95" y="22" width="440" height="50"/>
<path d="M109.657 60.2692L99 37.7221H107.497L113.833 51.8619L111.961 52.0317L118.489 37.7221H126.89L115.705 60.2692H109.657Z"/>
<path d="M147.927 60.2692V37.7222H155.224L155.464 42.308L153.928 42.8175C154.28 41.7985 154.904 40.8785 155.8 40.0575C156.728 39.2083 157.832 38.5289 159.112 38.0194C160.392 37.5099 161.736 37.2551 163.144 37.2551C165.064 37.2551 166.68 37.6089 167.992 38.3166C169.305 38.996 170.297 40.0292 170.969 41.4163C171.641 42.7751 171.977 44.4452 171.977 46.4268V60.2692H164.248V46.9788C164.248 46.0729 164.104 45.3228 163.816 44.7283C163.528 44.1339 163.08 43.6951 162.472 43.412C161.896 43.1006 161.176 42.9591 160.312 42.9874C159.64 42.9874 159.016 43.0865 158.44 43.2846C157.864 43.4545 157.368 43.7234 156.952 44.0914C156.536 44.4311 156.2 44.8274 155.944 45.2803C155.72 45.7332 155.608 46.2286 155.608 46.7665V60.2692H151.815C150.919 60.2692 150.151 60.2692 149.511 60.2692C148.871 60.2692 148.343 60.2692 147.927 60.2692Z"/>
<path d="M193.342 60.6939C190.526 60.6939 188.078 60.1985 185.998 59.2077C183.917 58.1886 182.301 56.8157 181.149 55.0889C179.997 53.3339 179.421 51.3382 179.421 49.1019C179.421 47.3751 179.741 45.7899 180.381 44.3462C181.021 42.9025 181.917 41.6569 183.069 40.6095C184.221 39.5339 185.582 38.7129 187.15 38.1468C188.75 37.5523 190.494 37.2551 192.382 37.2551C194.174 37.2551 195.806 37.5382 197.278 38.1043C198.782 38.6705 200.079 39.4631 201.167 40.4822C202.255 41.5012 203.087 42.7043 203.663 44.0914C204.239 45.4785 204.495 46.9929 204.431 48.6348L204.383 50.4606H184.077L182.973 46.6391H198.142L197.326 47.4459V46.5966C197.262 45.8889 197.006 45.2662 196.558 44.7283C196.142 44.1622 195.582 43.7234 194.878 43.412C194.174 43.1006 193.374 42.9449 192.478 42.9449C191.23 42.9449 190.158 43.1714 189.262 43.6243C188.398 44.0489 187.742 44.6859 187.294 45.5351C186.846 46.356 186.622 47.3751 186.622 48.5923C186.622 49.8379 186.91 50.9277 187.486 51.8619C188.094 52.7677 188.958 53.4754 190.078 53.9849C191.23 54.4945 192.59 54.7492 194.158 54.7492C195.246 54.7492 196.206 54.6077 197.038 54.3246C197.902 54.0415 198.83 53.5603 199.823 52.8809L203.423 57.3819C202.431 58.1462 201.375 58.7689 200.255 59.2502C199.134 59.7314 197.982 60.0852 196.798 60.3117C195.646 60.5665 194.494 60.6939 193.342 60.6939Z"/>
<path d="M212.807 60.2692V32.0323H220.488V60.2692H212.807ZM209.931 43.6667V37.7221H225.432V43.6667H216.864H209.931Z"/>
<path d="M290.708 60.6939C288.052 60.6939 285.684 60.1843 283.604 59.1652C281.556 58.1462 279.924 56.7591 278.708 55.004C277.524 53.2489 276.931 51.2391 276.931 48.9745C276.931 46.7099 277.524 44.7 278.708 42.9449C279.924 41.1899 281.556 39.8028 283.604 38.7837C285.684 37.7646 288.052 37.2551 290.708 37.2551C293.365 37.2551 295.717 37.7646 297.765 38.7837C299.845 39.8028 301.477 41.1899 302.661 42.9449C303.845 44.7 304.437 46.7099 304.437 48.9745C304.437 51.2391 303.845 53.2489 302.661 55.004C301.477 56.7591 299.845 58.1462 297.765 59.1652C295.717 60.1843 293.365 60.6939 290.708 60.6939ZM290.708 54.8342C291.86 54.8342 292.885 54.5794 293.781 54.0699C294.677 53.5603 295.381 52.8668 295.893 51.9892C296.405 51.1117 296.645 50.1068 296.613 48.9745C296.645 47.8422 296.405 46.8372 295.893 45.9597C295.381 45.0539 294.677 44.3462 293.781 43.8366C292.885 43.3271 291.86 43.0723 290.708 43.0723C289.556 43.0723 288.516 43.3271 287.588 43.8366C286.692 44.3462 285.988 45.0539 285.476 45.9597C284.964 46.8372 284.724 47.8422 284.756 48.9745C284.724 50.1068 284.964 51.1117 285.476 51.9892C285.988 52.8668 286.692 53.5603 287.588 54.0699C288.516 54.5794 289.556 54.8342 290.708 54.8342Z"/>
<path d="M311.938 60.2692V37.7222H319.234L319.57 45.068L318.13 43.6668C318.514 42.4495 319.138 41.3597 320.002 40.3972C320.898 39.4348 321.938 38.6705 323.122 38.1043C324.307 37.5382 325.571 37.2551 326.915 37.2551C327.491 37.2551 328.019 37.2975 328.499 37.3825C329.011 37.4674 329.475 37.5665 329.891 37.6797L327.779 45.1954C327.427 44.9972 326.947 44.8415 326.339 44.7283C325.763 44.5868 325.155 44.516 324.515 44.516C323.81 44.516 323.154 44.6292 322.546 44.8557C321.938 45.0539 321.426 45.3511 321.01 45.7474C320.594 46.1437 320.258 46.6108 320.002 47.1486C319.778 47.6865 319.666 48.2951 319.666 48.9745V60.2692H311.938Z"/>
<path d="M342.74 53.6452L339.908 48.5498L351.812 37.7221H361.941L342.74 53.6452ZM335.347 60.2692V24H343.028V60.2692H335.347ZM352.628 60.2692L343.652 49.9935L349.076 46.2569L361.701 60.2692H352.628Z"/>
<path d="M417.993 60.2692V37.7222H425.289L425.625 45.068L424.185 43.6668C424.569 42.4495 425.193 41.3597 426.057 40.3972C426.953 39.4348 427.993 38.6705 429.177 38.1043C430.361 37.5382 431.625 37.2551 432.97 37.2551C433.546 37.2551 434.074 37.2975 434.554 37.3825C435.066 37.4674 435.53 37.5665 435.946 37.6797L433.834 45.1954C433.482 44.9972 433.002 44.8415 432.394 44.7283C431.817 44.5868 431.209 44.516 430.569 44.516C429.865 44.516 429.209 44.6292 428.601 44.8557C427.993 45.0539 427.481 45.3511 427.065 45.7474C426.649 46.1437 426.313 46.6108 426.057 47.1486C425.833 47.6865 425.721 48.2951 425.721 48.9745V60.2692H417.993Z"/>
<path d="M451.491 60.6514C449.347 60.6514 447.426 60.156 445.73 59.1652C444.066 58.1462 442.738 56.7591 441.746 55.004C440.754 53.2206 440.258 51.2108 440.258 48.9745C440.258 46.6815 440.754 44.6575 441.746 42.9025C442.738 41.1474 444.098 39.7745 445.826 38.7837C447.555 37.7646 449.523 37.2551 451.731 37.2551C452.947 37.2551 454.051 37.4108 455.043 37.7222C456.067 38.0335 456.963 38.4723 457.731 39.0385C458.499 39.5763 459.155 40.2132 459.699 40.9492C460.243 41.6569 460.643 42.4212 460.899 43.2422L459.315 43.0723V37.7222H466.948V60.2692H459.171V54.8342L460.899 54.7917C460.643 55.5843 460.227 56.3345 459.651 57.0422C459.075 57.7499 458.371 58.3726 457.539 58.9105C456.707 59.4483 455.779 59.8729 454.755 60.1843C453.731 60.4957 452.643 60.6514 451.491 60.6514ZM453.603 54.9191C454.787 54.9191 455.811 54.6785 456.675 54.1972C457.539 53.716 458.211 53.0366 458.691 52.1591C459.171 51.2532 459.411 50.1917 459.411 48.9745C459.411 47.7572 459.171 46.7099 458.691 45.8323C458.211 44.9265 457.539 44.2329 456.675 43.7517C455.811 43.2422 454.787 42.9874 453.603 42.9874C452.451 42.9874 451.443 43.2422 450.579 43.7517C449.747 44.2329 449.091 44.9265 448.611 45.8323C448.131 46.7099 447.891 47.7572 447.891 48.9745C447.891 50.1917 448.131 51.2532 448.611 52.1591C449.091 53.0366 449.747 53.716 450.579 54.1972C451.443 54.6785 452.451 54.9191 453.603 54.9191Z"/>
<path d="M474.948 69.6108V37.7221H482.245L482.533 42.7751L481.093 42.3929C481.317 41.4588 481.861 40.6095 482.725 39.8452C483.589 39.0809 484.677 38.4723 485.989 38.0194C487.333 37.5381 488.741 37.2975 490.213 37.2975C492.389 37.2975 494.326 37.8071 496.022 38.8261C497.718 39.8169 499.046 41.1898 500.006 42.9449C500.998 44.6717 501.494 46.6815 501.494 48.9744C501.494 51.2391 500.998 53.2489 500.006 55.004C499.046 56.7591 497.702 58.1461 495.974 59.1652C494.278 60.156 492.325 60.6514 490.117 60.6514C488.677 60.6514 487.301 60.4108 485.989 59.9295C484.677 59.4483 483.573 58.7972 482.677 57.9763C481.781 57.1554 481.189 56.2637 480.901 55.3012L482.677 54.7068V69.6108H474.948ZM488.245 54.9191C489.397 54.9191 490.405 54.6784 491.269 54.1972C492.133 53.6877 492.805 52.9941 493.285 52.1166C493.765 51.2391 494.005 50.1917 494.005 48.9744C494.005 47.7855 493.765 46.7523 493.285 45.8748C492.805 44.9689 492.133 44.2754 491.269 43.7941C490.437 43.2846 489.429 43.0298 488.245 43.0298C487.061 43.0298 486.037 43.2704 485.173 43.7517C484.309 44.2329 483.637 44.9264 483.157 45.8323C482.677 46.7381 482.437 47.7855 482.437 48.9744C482.437 50.1917 482.677 51.2391 483.157 52.1166C483.637 52.9941 484.309 53.6877 485.173 54.1972C486.037 54.6784 487.061 54.9191 488.245 54.9191Z"/>
<path d="M508.95 60.2692V24H516.487V42.308L514.951 42.8175C515.303 41.7984 515.927 40.8784 516.823 40.0575C517.751 39.2083 518.855 38.5289 520.135 38.0194C521.415 37.5098 522.759 37.2551 524.167 37.2551C526.088 37.2551 527.704 37.6089 529.016 38.3166C530.328 38.996 531.32 40.0292 531.992 41.4163C532.664 42.7751 533 44.4452 533 46.4268V60.2692H525.272V46.9788C525.272 46.0729 525.128 45.3228 524.84 44.7283C524.551 44.1338 524.103 43.6951 523.495 43.412C522.919 43.1006 522.199 42.9591 521.335 42.9874C520.663 42.9874 520.039 43.0864 519.463 43.2846C518.887 43.4544 518.391 43.7234 517.975 44.0914C517.559 44.4311 517.223 44.8274 516.967 45.2803C516.743 45.7332 516.631 46.2286 516.631 46.7664V60.2692H512.839C511.943 60.2692 511.175 60.2692 510.535 60.2692C509.895 60.2692 509.367 60.2692 508.95 60.2692Z"/>
<path d="M395.776 70C393.713 70 391.649 69.7315 389.586 69.1945C387.554 68.6574 385.903 67.9649 384.633 67.117L387.3 62.3685C387.966 62.7642 388.697 63.1034 389.49 63.386C390.316 63.6969 391.173 63.9372 392.062 64.1068C392.951 64.2764 393.856 64.3611 394.776 64.3611C396.396 64.3611 397.713 64.1492 398.729 63.7252C399.745 63.3012 400.507 62.6511 401.015 61.7749C401.523 60.927 401.777 59.8529 401.777 58.5527V54.7793L403.253 54.9913C403.031 55.9241 402.475 56.772 401.586 57.5352C400.729 58.2983 399.666 58.9202 398.396 59.4007C397.126 59.8529 395.776 60.079 394.348 60.079C392.062 60.079 390.014 59.6126 388.205 58.6799C386.427 57.7189 385.014 56.4046 383.966 54.7369C382.95 53.0411 382.442 51.0908 382.442 48.8861C382.442 46.6249 382.95 44.6322 383.966 42.9081C384.982 41.1557 386.379 39.7848 388.157 38.7955C389.935 37.778 391.935 37.2692 394.157 37.2692C395.11 37.2692 396.015 37.3682 396.872 37.566C397.761 37.7639 398.57 38.0324 399.301 38.3716C400.062 38.6825 400.729 39.0641 401.301 39.5163C401.904 39.9403 402.38 40.4066 402.729 40.9154C403.11 41.4242 403.364 41.9471 403.491 42.4841L401.92 42.8233L402.205 37.7356H409.444V58.4255C409.444 60.2627 409.127 61.888 408.492 63.3012C407.888 64.7427 406.984 65.9581 405.777 66.9474C404.602 67.9649 403.174 68.7281 401.491 69.2368C399.808 69.7456 397.904 70 395.776 70ZM395.967 54.8217C397.205 54.8217 398.269 54.5815 399.158 54.101C400.078 53.5922 400.777 52.8997 401.253 52.0235C401.761 51.1473 402.015 50.1156 402.015 48.9285C402.015 47.7414 401.761 46.7097 401.253 45.8335C400.777 44.929 400.078 44.2365 399.158 43.756C398.269 43.2473 397.205 42.9929 395.967 42.9929C394.761 42.9929 393.713 43.2473 392.824 43.756C391.935 44.2365 391.237 44.929 390.729 45.8335C390.252 46.7097 390.014 47.7414 390.014 48.9285C390.014 50.1156 390.252 51.1473 390.729 52.0235C391.237 52.8997 391.935 53.5922 392.824 54.101C393.713 54.5815 394.761 54.8217 395.967 54.8217Z"/>
<path d="M365.441 51.4231V45.2308H378.442V51.4231H365.441Z"/>
<path d="M240.439 60.2692L230.933 38.1538H240.113L245.437 52.5226L244.296 52.356L250.272 38.1539H255.379L261.68 52.3977L260.431 52.481L265.755 38.1538H274.935L265.103 60.2692H258.692L252.445 45.3591L253.097 45.4424L246.85 60.2692H240.439Z"/>
<path d="M129.426 51.4231V45.2308H142.427V51.4231H129.426Z"/>
</mask>
<path d="M109.657 60.2692L99 37.7221H107.497L113.833 51.8619L111.961 52.0317L118.489 37.7221H126.89L115.705 60.2692H109.657Z" fill="#2D355D"/>
<path d="M147.927 60.2692V37.7222H155.224L155.464 42.308L153.928 42.8175C154.28 41.7985 154.904 40.8785 155.8 40.0575C156.728 39.2083 157.832 38.5289 159.112 38.0194C160.392 37.5099 161.736 37.2551 163.144 37.2551C165.064 37.2551 166.68 37.6089 167.992 38.3166C169.305 38.996 170.297 40.0292 170.969 41.4163C171.641 42.7751 171.977 44.4452 171.977 46.4268V60.2692H164.248V46.9788C164.248 46.0729 164.104 45.3228 163.816 44.7283C163.528 44.1339 163.08 43.6951 162.472 43.412C161.896 43.1006 161.176 42.9591 160.312 42.9874C159.64 42.9874 159.016 43.0865 158.44 43.2846C157.864 43.4545 157.368 43.7234 156.952 44.0914C156.536 44.4311 156.2 44.8274 155.944 45.2803C155.72 45.7332 155.608 46.2286 155.608 46.7665V60.2692H151.815C150.919 60.2692 150.151 60.2692 149.511 60.2692C148.871 60.2692 148.343 60.2692 147.927 60.2692Z" fill="#2D355D"/>
<path d="M193.342 60.6939C190.526 60.6939 188.078 60.1985 185.998 59.2077C183.917 58.1886 182.301 56.8157 181.149 55.0889C179.997 53.3339 179.421 51.3382 179.421 49.1019C179.421 47.3751 179.741 45.7899 180.381 44.3462C181.021 42.9025 181.917 41.6569 183.069 40.6095C184.221 39.5339 185.582 38.7129 187.15 38.1468C188.75 37.5523 190.494 37.2551 192.382 37.2551C194.174 37.2551 195.806 37.5382 197.278 38.1043C198.782 38.6705 200.079 39.4631 201.167 40.4822C202.255 41.5012 203.087 42.7043 203.663 44.0914C204.239 45.4785 204.495 46.9929 204.431 48.6348L204.383 50.4606H184.077L182.973 46.6391H198.142L197.326 47.4459V46.5966C197.262 45.8889 197.006 45.2662 196.558 44.7283C196.142 44.1622 195.582 43.7234 194.878 43.412C194.174 43.1006 193.374 42.9449 192.478 42.9449C191.23 42.9449 190.158 43.1714 189.262 43.6243C188.398 44.0489 187.742 44.6859 187.294 45.5351C186.846 46.356 186.622 47.3751 186.622 48.5923C186.622 49.8379 186.91 50.9277 187.486 51.8619C188.094 52.7677 188.958 53.4754 190.078 53.9849C191.23 54.4945 192.59 54.7492 194.158 54.7492C195.246 54.7492 196.206 54.6077 197.038 54.3246C197.902 54.0415 198.83 53.5603 199.823 52.8809L203.423 57.3819C202.431 58.1462 201.375 58.7689 200.255 59.2502C199.134 59.7314 197.982 60.0852 196.798 60.3117C195.646 60.5665 194.494 60.6939 193.342 60.6939Z" fill="#2D355D"/>
<path d="M212.807 60.2692V32.0323H220.488V60.2692H212.807ZM209.931 43.6667V37.7221H225.432V43.6667H216.864H209.931Z" fill="#2D355D"/>
<path d="M290.708 60.6939C288.052 60.6939 285.684 60.1843 283.604 59.1652C281.556 58.1462 279.924 56.7591 278.708 55.004C277.524 53.2489 276.931 51.2391 276.931 48.9745C276.931 46.7099 277.524 44.7 278.708 42.9449C279.924 41.1899 281.556 39.8028 283.604 38.7837C285.684 37.7646 288.052 37.2551 290.708 37.2551C293.365 37.2551 295.717 37.7646 297.765 38.7837C299.845 39.8028 301.477 41.1899 302.661 42.9449C303.845 44.7 304.437 46.7099 304.437 48.9745C304.437 51.2391 303.845 53.2489 302.661 55.004C301.477 56.7591 299.845 58.1462 297.765 59.1652C295.717 60.1843 293.365 60.6939 290.708 60.6939ZM290.708 54.8342C291.86 54.8342 292.885 54.5794 293.781 54.0699C294.677 53.5603 295.381 52.8668 295.893 51.9892C296.405 51.1117 296.645 50.1068 296.613 48.9745C296.645 47.8422 296.405 46.8372 295.893 45.9597C295.381 45.0539 294.677 44.3462 293.781 43.8366C292.885 43.3271 291.86 43.0723 290.708 43.0723C289.556 43.0723 288.516 43.3271 287.588 43.8366C286.692 44.3462 285.988 45.0539 285.476 45.9597C284.964 46.8372 284.724 47.8422 284.756 48.9745C284.724 50.1068 284.964 51.1117 285.476 51.9892C285.988 52.8668 286.692 53.5603 287.588 54.0699C288.516 54.5794 289.556 54.8342 290.708 54.8342Z" fill="#2D355D"/>
<path d="M311.938 60.2692V37.7222H319.234L319.57 45.068L318.13 43.6668C318.514 42.4495 319.138 41.3597 320.002 40.3972C320.898 39.4348 321.938 38.6705 323.122 38.1043C324.307 37.5382 325.571 37.2551 326.915 37.2551C327.491 37.2551 328.019 37.2975 328.499 37.3825C329.011 37.4674 329.475 37.5665 329.891 37.6797L327.779 45.1954C327.427 44.9972 326.947 44.8415 326.339 44.7283C325.763 44.5868 325.155 44.516 324.515 44.516C323.81 44.516 323.154 44.6292 322.546 44.8557C321.938 45.0539 321.426 45.3511 321.01 45.7474C320.594 46.1437 320.258 46.6108 320.002 47.1486C319.778 47.6865 319.666 48.2951 319.666 48.9745V60.2692H311.938Z" fill="#2D355D"/>
<path d="M342.74 53.6452L339.908 48.5498L351.812 37.7221H361.941L342.74 53.6452ZM335.347 60.2692V24H343.028V60.2692H335.347ZM352.628 60.2692L343.652 49.9935L349.076 46.2569L361.701 60.2692H352.628Z" fill="#2D355D"/>
<path d="M417.993 60.2692V37.7222H425.289L425.625 45.068L424.185 43.6668C424.569 42.4495 425.193 41.3597 426.057 40.3972C426.953 39.4348 427.993 38.6705 429.177 38.1043C430.361 37.5382 431.625 37.2551 432.97 37.2551C433.546 37.2551 434.074 37.2975 434.554 37.3825C435.066 37.4674 435.53 37.5665 435.946 37.6797L433.834 45.1954C433.482 44.9972 433.002 44.8415 432.394 44.7283C431.817 44.5868 431.209 44.516 430.569 44.516C429.865 44.516 429.209 44.6292 428.601 44.8557C427.993 45.0539 427.481 45.3511 427.065 45.7474C426.649 46.1437 426.313 46.6108 426.057 47.1486C425.833 47.6865 425.721 48.2951 425.721 48.9745V60.2692H417.993Z" fill="#2D355D"/>
<path d="M451.491 60.6514C449.347 60.6514 447.426 60.156 445.73 59.1652C444.066 58.1462 442.738 56.7591 441.746 55.004C440.754 53.2206 440.258 51.2108 440.258 48.9745C440.258 46.6815 440.754 44.6575 441.746 42.9025C442.738 41.1474 444.098 39.7745 445.826 38.7837C447.555 37.7646 449.523 37.2551 451.731 37.2551C452.947 37.2551 454.051 37.4108 455.043 37.7222C456.067 38.0335 456.963 38.4723 457.731 39.0385C458.499 39.5763 459.155 40.2132 459.699 40.9492C460.243 41.6569 460.643 42.4212 460.899 43.2422L459.315 43.0723V37.7222H466.948V60.2692H459.171V54.8342L460.899 54.7917C460.643 55.5843 460.227 56.3345 459.651 57.0422C459.075 57.7499 458.371 58.3726 457.539 58.9105C456.707 59.4483 455.779 59.8729 454.755 60.1843C453.731 60.4957 452.643 60.6514 451.491 60.6514ZM453.603 54.9191C454.787 54.9191 455.811 54.6785 456.675 54.1972C457.539 53.716 458.211 53.0366 458.691 52.1591C459.171 51.2532 459.411 50.1917 459.411 48.9745C459.411 47.7572 459.171 46.7099 458.691 45.8323C458.211 44.9265 457.539 44.2329 456.675 43.7517C455.811 43.2422 454.787 42.9874 453.603 42.9874C452.451 42.9874 451.443 43.2422 450.579 43.7517C449.747 44.2329 449.091 44.9265 448.611 45.8323C448.131 46.7099 447.891 47.7572 447.891 48.9745C447.891 50.1917 448.131 51.2532 448.611 52.1591C449.091 53.0366 449.747 53.716 450.579 54.1972C451.443 54.6785 452.451 54.9191 453.603 54.9191Z" fill="#2D355D"/>
<path d="M474.948 69.6108V37.7221H482.245L482.533 42.7751L481.093 42.3929C481.317 41.4588 481.861 40.6095 482.725 39.8452C483.589 39.0809 484.677 38.4723 485.989 38.0194C487.333 37.5381 488.741 37.2975 490.213 37.2975C492.389 37.2975 494.326 37.8071 496.022 38.8261C497.718 39.8169 499.046 41.1898 500.006 42.9449C500.998 44.6717 501.494 46.6815 501.494 48.9744C501.494 51.2391 500.998 53.2489 500.006 55.004C499.046 56.7591 497.702 58.1461 495.974 59.1652C494.278 60.156 492.325 60.6514 490.117 60.6514C488.677 60.6514 487.301 60.4108 485.989 59.9295C484.677 59.4483 483.573 58.7972 482.677 57.9763C481.781 57.1554 481.189 56.2637 480.901 55.3012L482.677 54.7068V69.6108H474.948ZM488.245 54.9191C489.397 54.9191 490.405 54.6784 491.269 54.1972C492.133 53.6877 492.805 52.9941 493.285 52.1166C493.765 51.2391 494.005 50.1917 494.005 48.9744C494.005 47.7855 493.765 46.7523 493.285 45.8748C492.805 44.9689 492.133 44.2754 491.269 43.7941C490.437 43.2846 489.429 43.0298 488.245 43.0298C487.061 43.0298 486.037 43.2704 485.173 43.7517C484.309 44.2329 483.637 44.9264 483.157 45.8323C482.677 46.7381 482.437 47.7855 482.437 48.9744C482.437 50.1917 482.677 51.2391 483.157 52.1166C483.637 52.9941 484.309 53.6877 485.173 54.1972C486.037 54.6784 487.061 54.9191 488.245 54.9191Z" fill="#2D355D"/>
<path d="M508.95 60.2692V24H516.487V42.308L514.951 42.8175C515.303 41.7984 515.927 40.8784 516.823 40.0575C517.751 39.2083 518.855 38.5289 520.135 38.0194C521.415 37.5098 522.759 37.2551 524.167 37.2551C526.088 37.2551 527.704 37.6089 529.016 38.3166C530.328 38.996 531.32 40.0292 531.992 41.4163C532.664 42.7751 533 44.4452 533 46.4268V60.2692H525.272V46.9788C525.272 46.0729 525.128 45.3228 524.84 44.7283C524.551 44.1338 524.103 43.6951 523.495 43.412C522.919 43.1006 522.199 42.9591 521.335 42.9874C520.663 42.9874 520.039 43.0864 519.463 43.2846C518.887 43.4544 518.391 43.7234 517.975 44.0914C517.559 44.4311 517.223 44.8274 516.967 45.2803C516.743 45.7332 516.631 46.2286 516.631 46.7664V60.2692H512.839C511.943 60.2692 511.175 60.2692 510.535 60.2692C509.895 60.2692 509.367 60.2692 508.95 60.2692Z" fill="#2D355D"/>
<path d="M395.776 70C393.713 70 391.649 69.7315 389.586 69.1945C387.554 68.6574 385.903 67.9649 384.633 67.117L387.3 62.3685C387.966 62.7642 388.697 63.1034 389.49 63.386C390.316 63.6969 391.173 63.9372 392.062 64.1068C392.951 64.2764 393.856 64.3611 394.776 64.3611C396.396 64.3611 397.713 64.1492 398.729 63.7252C399.745 63.3012 400.507 62.6511 401.015 61.7749C401.523 60.927 401.777 59.8529 401.777 58.5527V54.7793L403.253 54.9913C403.031 55.9241 402.475 56.772 401.586 57.5352C400.729 58.2983 399.666 58.9202 398.396 59.4007C397.126 59.8529 395.776 60.079 394.348 60.079C392.062 60.079 390.014 59.6126 388.205 58.6799C386.427 57.7189 385.014 56.4046 383.966 54.7369C382.95 53.0411 382.442 51.0908 382.442 48.8861C382.442 46.6249 382.95 44.6322 383.966 42.9081C384.982 41.1557 386.379 39.7848 388.157 38.7955C389.935 37.778 391.935 37.2692 394.157 37.2692C395.11 37.2692 396.015 37.3682 396.872 37.566C397.761 37.7639 398.57 38.0324 399.301 38.3716C400.062 38.6825 400.729 39.0641 401.301 39.5163C401.904 39.9403 402.38 40.4066 402.729 40.9154C403.11 41.4242 403.364 41.9471 403.491 42.4841L401.92 42.8233L402.205 37.7356H409.444V58.4255C409.444 60.2627 409.127 61.888 408.492 63.3012C407.888 64.7427 406.984 65.9581 405.777 66.9474C404.602 67.9649 403.174 68.7281 401.491 69.2368C399.808 69.7456 397.904 70 395.776 70ZM395.967 54.8217C397.205 54.8217 398.269 54.5815 399.158 54.101C400.078 53.5922 400.777 52.8997 401.253 52.0235C401.761 51.1473 402.015 50.1156 402.015 48.9285C402.015 47.7414 401.761 46.7097 401.253 45.8335C400.777 44.929 400.078 44.2365 399.158 43.756C398.269 43.2473 397.205 42.9929 395.967 42.9929C394.761 42.9929 393.713 43.2473 392.824 43.756C391.935 44.2365 391.237 44.929 390.729 45.8335C390.252 46.7097 390.014 47.7414 390.014 48.9285C390.014 50.1156 390.252 51.1473 390.729 52.0235C391.237 52.8997 391.935 53.5922 392.824 54.101C393.713 54.5815 394.761 54.8217 395.967 54.8217Z" fill="#2D355D"/>
<path d="M365.441 51.4231V45.2308H378.442V51.4231H365.441Z" fill="#2D355D"/>
<path d="M240.439 60.2692L230.933 38.1538H240.113L245.437 52.5226L244.296 52.356L250.272 38.1539H255.379L261.68 52.3977L260.431 52.481L265.755 38.1538H274.935L265.103 60.2692H258.692L252.445 45.3591L253.097 45.4424L246.85 60.2692H240.439Z" fill="#2D355D"/>
<path d="M129.426 51.4231V45.2308H142.427V51.4231H129.426Z" fill="#2D355D"/>
<path d="M109.657 60.2692L99 37.7221H107.497L113.833 51.8619L111.961 52.0317L118.489 37.7221H126.89L115.705 60.2692H109.657Z" stroke="white" stroke-width="4" mask="url(#path-6-outside-1_3_440)"/>
<path d="M147.927 60.2692V37.7222H155.224L155.464 42.308L153.928 42.8175C154.28 41.7985 154.904 40.8785 155.8 40.0575C156.728 39.2083 157.832 38.5289 159.112 38.0194C160.392 37.5099 161.736 37.2551 163.144 37.2551C165.064 37.2551 166.68 37.6089 167.992 38.3166C169.305 38.996 170.297 40.0292 170.969 41.4163C171.641 42.7751 171.977 44.4452 171.977 46.4268V60.2692H164.248V46.9788C164.248 46.0729 164.104 45.3228 163.816 44.7283C163.528 44.1339 163.08 43.6951 162.472 43.412C161.896 43.1006 161.176 42.9591 160.312 42.9874C159.64 42.9874 159.016 43.0865 158.44 43.2846C157.864 43.4545 157.368 43.7234 156.952 44.0914C156.536 44.4311 156.2 44.8274 155.944 45.2803C155.72 45.7332 155.608 46.2286 155.608 46.7665V60.2692H151.815C150.919 60.2692 150.151 60.2692 149.511 60.2692C148.871 60.2692 148.343 60.2692 147.927 60.2692Z" stroke="white" stroke-width="4" mask="url(#path-6-outside-1_3_440)"/>
<path d="M193.342 60.6939C190.526 60.6939 188.078 60.1985 185.998 59.2077C183.917 58.1886 182.301 56.8157 181.149 55.0889C179.997 53.3339 179.421 51.3382 179.421 49.1019C179.421 47.3751 179.741 45.7899 180.381 44.3462C181.021 42.9025 181.917 41.6569 183.069 40.6095C184.221 39.5339 185.582 38.7129 187.15 38.1468C188.75 37.5523 190.494 37.2551 192.382 37.2551C194.174 37.2551 195.806 37.5382 197.278 38.1043C198.782 38.6705 200.079 39.4631 201.167 40.4822C202.255 41.5012 203.087 42.7043 203.663 44.0914C204.239 45.4785 204.495 46.9929 204.431 48.6348L204.383 50.4606H184.077L182.973 46.6391H198.142L197.326 47.4459V46.5966C197.262 45.8889 197.006 45.2662 196.558 44.7283C196.142 44.1622 195.582 43.7234 194.878 43.412C194.174 43.1006 193.374 42.9449 192.478 42.9449C191.23 42.9449 190.158 43.1714 189.262 43.6243C188.398 44.0489 187.742 44.6859 187.294 45.5351C186.846 46.356 186.622 47.3751 186.622 48.5923C186.622 49.8379 186.91 50.9277 187.486 51.8619C188.094 52.7677 188.958 53.4754 190.078 53.9849C191.23 54.4945 192.59 54.7492 194.158 54.7492C195.246 54.7492 196.206 54.6077 197.038 54.3246C197.902 54.0415 198.83 53.5603 199.823 52.8809L203.423 57.3819C202.431 58.1462 201.375 58.7689 200.255 59.2502C199.134 59.7314 197.982 60.0852 196.798 60.3117C195.646 60.5665 194.494 60.6939 193.342 60.6939Z" stroke="white" stroke-width="4" mask="url(#path-6-outside-1_3_440)"/>
<path d="M212.807 60.2692V32.0323H220.488V60.2692H212.807ZM209.931 43.6667V37.7221H225.432V43.6667H216.864H209.931Z" stroke="white" stroke-width="4" mask="url(#path-6-outside-1_3_440)"/>
<path d="M290.708 60.6939C288.052 60.6939 285.684 60.1843 283.604 59.1652C281.556 58.1462 279.924 56.7591 278.708 55.004C277.524 53.2489 276.931 51.2391 276.931 48.9745C276.931 46.7099 277.524 44.7 278.708 42.9449C279.924 41.1899 281.556 39.8028 283.604 38.7837C285.684 37.7646 288.052 37.2551 290.708 37.2551C293.365 37.2551 295.717 37.7646 297.765 38.7837C299.845 39.8028 301.477 41.1899 302.661 42.9449C303.845 44.7 304.437 46.7099 304.437 48.9745C304.437 51.2391 303.845 53.2489 302.661 55.004C301.477 56.7591 299.845 58.1462 297.765 59.1652C295.717 60.1843 293.365 60.6939 290.708 60.6939ZM290.708 54.8342C291.86 54.8342 292.885 54.5794 293.781 54.0699C294.677 53.5603 295.381 52.8668 295.893 51.9892C296.405 51.1117 296.645 50.1068 296.613 48.9745C296.645 47.8422 296.405 46.8372 295.893 45.9597C295.381 45.0539 294.677 44.3462 293.781 43.8366C292.885 43.3271 291.86 43.0723 290.708 43.0723C289.556 43.0723 288.516 43.3271 287.588 43.8366C286.692 44.3462 285.988 45.0539 285.476 45.9597C284.964 46.8372 284.724 47.8422 284.756 48.9745C284.724 50.1068 284.964 51.1117 285.476 51.9892C285.988 52.8668 286.692 53.5603 287.588 54.0699C288.516 54.5794 289.556 54.8342 290.708 54.8342Z" stroke="white" stroke-width="4" mask="url(#path-6-outside-1_3_440)"/>
<path d="M311.938 60.2692V37.7222H319.234L319.57 45.068L318.13 43.6668C318.514 42.4495 319.138 41.3597 320.002 40.3972C320.898 39.4348 321.938 38.6705 323.122 38.1043C324.307 37.5382 325.571 37.2551 326.915 37.2551C327.491 37.2551 328.019 37.2975 328.499 37.3825C329.011 37.4674 329.475 37.5665 329.891 37.6797L327.779 45.1954C327.427 44.9972 326.947 44.8415 326.339 44.7283C325.763 44.5868 325.155 44.516 324.515 44.516C323.81 44.516 323.154 44.6292 322.546 44.8557C321.938 45.0539 321.426 45.3511 321.01 45.7474C320.594 46.1437 320.258 46.6108 320.002 47.1486C319.778 47.6865 319.666 48.2951 319.666 48.9745V60.2692H311.938Z" stroke="white" stroke-width="4" mask="url(#path-6-outside-1_3_440)"/>
<path d="M342.74 53.6452L339.908 48.5498L351.812 37.7221H361.941L342.74 53.6452ZM335.347 60.2692V24H343.028V60.2692H335.347ZM352.628 60.2692L343.652 49.9935L349.076 46.2569L361.701 60.2692H352.628Z" stroke="white" stroke-width="4" mask="url(#path-6-outside-1_3_440)"/>
<path d="M417.993 60.2692V37.7222H425.289L425.625 45.068L424.185 43.6668C424.569 42.4495 425.193 41.3597 426.057 40.3972C426.953 39.4348 427.993 38.6705 429.177 38.1043C430.361 37.5382 431.625 37.2551 432.97 37.2551C433.546 37.2551 434.074 37.2975 434.554 37.3825C435.066 37.4674 435.53 37.5665 435.946 37.6797L433.834 45.1954C433.482 44.9972 433.002 44.8415 432.394 44.7283C431.817 44.5868 431.209 44.516 430.569 44.516C429.865 44.516 429.209 44.6292 428.601 44.8557C427.993 45.0539 427.481 45.3511 427.065 45.7474C426.649 46.1437 426.313 46.6108 426.057 47.1486C425.833 47.6865 425.721 48.2951 425.721 48.9745V60.2692H417.993Z" stroke="white" stroke-width="4" mask="url(#path-6-outside-1_3_440)"/>
<path d="M451.491 60.6514C449.347 60.6514 447.426 60.156 445.73 59.1652C444.066 58.1462 442.738 56.7591 441.746 55.004C440.754 53.2206 440.258 51.2108 440.258 48.9745C440.258 46.6815 440.754 44.6575 441.746 42.9025C442.738 41.1474 444.098 39.7745 445.826 38.7837C447.555 37.7646 449.523 37.2551 451.731 37.2551C452.947 37.2551 454.051 37.4108 455.043 37.7222C456.067 38.0335 456.963 38.4723 457.731 39.0385C458.499 39.5763 459.155 40.2132 459.699 40.9492C460.243 41.6569 460.643 42.4212 460.899 43.2422L459.315 43.0723V37.7222H466.948V60.2692H459.171V54.8342L460.899 54.7917C460.643 55.5843 460.227 56.3345 459.651 57.0422C459.075 57.7499 458.371 58.3726 457.539 58.9105C456.707 59.4483 455.779 59.8729 454.755 60.1843C453.731 60.4957 452.643 60.6514 451.491 60.6514ZM453.603 54.9191C454.787 54.9191 455.811 54.6785 456.675 54.1972C457.539 53.716 458.211 53.0366 458.691 52.1591C459.171 51.2532 459.411 50.1917 459.411 48.9745C459.411 47.7572 459.171 46.7099 458.691 45.8323C458.211 44.9265 457.539 44.2329 456.675 43.7517C455.811 43.2422 454.787 42.9874 453.603 42.9874C452.451 42.9874 451.443 43.2422 450.579 43.7517C449.747 44.2329 449.091 44.9265 448.611 45.8323C448.131 46.7099 447.891 47.7572 447.891 48.9745C447.891 50.1917 448.131 51.2532 448.611 52.1591C449.091 53.0366 449.747 53.716 450.579 54.1972C451.443 54.6785 452.451 54.9191 453.603 54.9191Z" stroke="white" stroke-width="4" mask="url(#path-6-outside-1_3_440)"/>
<path d="M474.948 69.6108V37.7221H482.245L482.533 42.7751L481.093 42.3929C481.317 41.4588 481.861 40.6095 482.725 39.8452C483.589 39.0809 484.677 38.4723 485.989 38.0194C487.333 37.5381 488.741 37.2975 490.213 37.2975C492.389 37.2975 494.326 37.8071 496.022 38.8261C497.718 39.8169 499.046 41.1898 500.006 42.9449C500.998 44.6717 501.494 46.6815 501.494 48.9744C501.494 51.2391 500.998 53.2489 500.006 55.004C499.046 56.7591 497.702 58.1461 495.974 59.1652C494.278 60.156 492.325 60.6514 490.117 60.6514C488.677 60.6514 487.301 60.4108 485.989 59.9295C484.677 59.4483 483.573 58.7972 482.677 57.9763C481.781 57.1554 481.189 56.2637 480.901 55.3012L482.677 54.7068V69.6108H474.948ZM488.245 54.9191C489.397 54.9191 490.405 54.6784 491.269 54.1972C492.133 53.6877 492.805 52.9941 493.285 52.1166C493.765 51.2391 494.005 50.1917 494.005 48.9744C494.005 47.7855 493.765 46.7523 493.285 45.8748C492.805 44.9689 492.133 44.2754 491.269 43.7941C490.437 43.2846 489.429 43.0298 488.245 43.0298C487.061 43.0298 486.037 43.2704 485.173 43.7517C484.309 44.2329 483.637 44.9264 483.157 45.8323C482.677 46.7381 482.437 47.7855 482.437 48.9744C482.437 50.1917 482.677 51.2391 483.157 52.1166C483.637 52.9941 484.309 53.6877 485.173 54.1972C486.037 54.6784 487.061 54.9191 488.245 54.9191Z" stroke="white" stroke-width="4" mask="url(#path-6-outside-1_3_440)"/>
<path d="M508.95 60.2692V24H516.487V42.308L514.951 42.8175C515.303 41.7984 515.927 40.8784 516.823 40.0575C517.751 39.2083 518.855 38.5289 520.135 38.0194C521.415 37.5098 522.759 37.2551 524.167 37.2551C526.088 37.2551 527.704 37.6089 529.016 38.3166C530.328 38.996 531.32 40.0292 531.992 41.4163C532.664 42.7751 533 44.4452 533 46.4268V60.2692H525.272V46.9788C525.272 46.0729 525.128 45.3228 524.84 44.7283C524.551 44.1338 524.103 43.6951 523.495 43.412C522.919 43.1006 522.199 42.9591 521.335 42.9874C520.663 42.9874 520.039 43.0864 519.463 43.2846C518.887 43.4544 518.391 43.7234 517.975 44.0914C517.559 44.4311 517.223 44.8274 516.967 45.2803C516.743 45.7332 516.631 46.2286 516.631 46.7664V60.2692H512.839C511.943 60.2692 511.175 60.2692 510.535 60.2692C509.895 60.2692 509.367 60.2692 508.95 60.2692Z" stroke="white" stroke-width="4" mask="url(#path-6-outside-1_3_440)"/>
<path d="M395.776 70C393.713 70 391.649 69.7315 389.586 69.1945C387.554 68.6574 385.903 67.9649 384.633 67.117L387.3 62.3685C387.966 62.7642 388.697 63.1034 389.49 63.386C390.316 63.6969 391.173 63.9372 392.062 64.1068C392.951 64.2764 393.856 64.3611 394.776 64.3611C396.396 64.3611 397.713 64.1492 398.729 63.7252C399.745 63.3012 400.507 62.6511 401.015 61.7749C401.523 60.927 401.777 59.8529 401.777 58.5527V54.7793L403.253 54.9913C403.031 55.9241 402.475 56.772 401.586 57.5352C400.729 58.2983 399.666 58.9202 398.396 59.4007C397.126 59.8529 395.776 60.079 394.348 60.079C392.062 60.079 390.014 59.6126 388.205 58.6799C386.427 57.7189 385.014 56.4046 383.966 54.7369C382.95 53.0411 382.442 51.0908 382.442 48.8861C382.442 46.6249 382.95 44.6322 383.966 42.9081C384.982 41.1557 386.379 39.7848 388.157 38.7955C389.935 37.778 391.935 37.2692 394.157 37.2692C395.11 37.2692 396.015 37.3682 396.872 37.566C397.761 37.7639 398.57 38.0324 399.301 38.3716C400.062 38.6825 400.729 39.0641 401.301 39.5163C401.904 39.9403 402.38 40.4066 402.729 40.9154C403.11 41.4242 403.364 41.9471 403.491 42.4841L401.92 42.8233L402.205 37.7356H409.444V58.4255C409.444 60.2627 409.127 61.888 408.492 63.3012C407.888 64.7427 406.984 65.9581 405.777 66.9474C404.602 67.9649 403.174 68.7281 401.491 69.2368C399.808 69.7456 397.904 70 395.776 70ZM395.967 54.8217C397.205 54.8217 398.269 54.5815 399.158 54.101C400.078 53.5922 400.777 52.8997 401.253 52.0235C401.761 51.1473 402.015 50.1156 402.015 48.9285C402.015 47.7414 401.761 46.7097 401.253 45.8335C400.777 44.929 400.078 44.2365 399.158 43.756C398.269 43.2473 397.205 42.9929 395.967 42.9929C394.761 42.9929 393.713 43.2473 392.824 43.756C391.935 44.2365 391.237 44.929 390.729 45.8335C390.252 46.7097 390.014 47.7414 390.014 48.9285C390.014 50.1156 390.252 51.1473 390.729 52.0235C391.237 52.8997 391.935 53.5922 392.824 54.101C393.713 54.5815 394.761 54.8217 395.967 54.8217Z" stroke="white" stroke-width="4" mask="url(#path-6-outside-1_3_440)"/>
<path d="M365.441 51.4231V45.2308H378.442V51.4231H365.441Z" stroke="white" stroke-width="4" mask="url(#path-6-outside-1_3_440)"/>
<path d="M240.439 60.2692L230.933 38.1538H240.113L245.437 52.5226L244.296 52.356L250.272 38.1539H255.379L261.68 52.3977L260.431 52.481L265.755 38.1538H274.935L265.103 60.2692H258.692L252.445 45.3591L253.097 45.4424L246.85 60.2692H240.439Z" stroke="white" stroke-width="4" mask="url(#path-6-outside-1_3_440)"/>
<path d="M129.426 51.4231V45.2308H142.427V51.4231H129.426Z" stroke="white" stroke-width="4" mask="url(#path-6-outside-1_3_440)"/>
<line x1="23.6865" y1="19.9554" x2="58.6865" y2="42.9554" stroke="#4065D0" stroke-width="2.5"/>
<line x1="21.6865" y1="23.9554" x2="56.6865" y2="46.9554" stroke="#4065D0" stroke-width="2.5"/>
<line x1="23.3066" y1="75.9599" x2="59.3066" y2="51.9599" stroke="#4065D0" stroke-width="2.5"/>
</svg>
