<?xml version="1.0" encoding="UTF-8" standalone="no"?>
<!DOCTYPE svg PUBLIC "-//W3C//DTD SVG 1.1//EN" "http://www.w3.org/Graphics/SVG/1.1/DTD/svg11.dtd">
<svg stroke-miterlimit="10" style="fill-rule:nonzero;clip-rule:evenodd;stroke-linecap:round;stroke-linejoin:round;" version="1.1" viewBox="0 0 540 100" width="540" height="100" xml:space="preserve" xmlns="http://www.w3.org/2000/svg" xmlns:xlink="http://www.w3.org/1999/xlink">
<defs/>
<g>
<g opacity="1">
<path d="M16.8754 14.6813L45.5495 33.6088L66.2268 47.2577" fill="none" opacity="1" stroke="#ffffff" stroke-linecap="butt" stroke-linejoin="round" stroke-width="5"/>
<path d="M13.9683 18.2805L42.6424 37.2081L63.3197 50.857" fill="none" opacity="1" stroke="#ffffff" stroke-linecap="butt" stroke-linejoin="round" stroke-width="5"/>
<path d="M16.3905 79.2948L36.7557 65.7327L45.3463 60.0119L66.2268 46.1068" fill="none" opacity="1" stroke="#ffffff" stroke-linecap="butt" stroke-linejoin="round" stroke-width="5"/>
</g>
<g opacity="1">
<path d="M2.48164 15.8203C2.48164 8.74098 8.22054 3.00208 15.2998 3.00208C22.3791 3.00208 28.118 8.74098 28.118 15.8203C28.118 22.8996 22.3791 28.6384 15.2998 28.6384C8.22054 28.6384 2.48164 22.8996 2.48164 15.8203Z" fill="#4065d0" fill-rule="nonzero" opacity="1" stroke="#ffffff" stroke-linecap="butt" stroke-linejoin="round" stroke-width="3"/>
<path d="M2.48164 80.4226C2.48164 73.3433 8.22054 67.6044 15.2998 67.6044C22.3791 67.6044 28.118 73.3433 28.118 80.4226C28.118 87.5019 22.3791 93.2408 15.2998 93.2408C8.22054 93.2408 2.48164 87.5019 2.48164 80.4226Z" fill="#4065d0" fill-rule="nonzero" opacity="1" stroke="#ffffff" stroke-linecap="butt" stroke-linejoin="round" stroke-width="3"/>
<path d="M52.0771 48.1214C52.0771 41.0421 57.816 35.3033 64.8953 35.3033C71.9746 35.3033 77.7135 41.0421 77.7135 48.1214C77.7135 55.2007 71.9746 60.9396 64.8953 60.9396C57.816 60.9396 52.0771 55.2007 52.0771 48.1214Z" fill="#4065d0" fill-rule="nonzero" opacity="1" stroke="#ffffff" stroke-linecap="butt" stroke-linejoin="round" stroke-width="3"/>
</g>
<g opacity="1">
<path d="M2.48164 15.8203C2.48164 8.74098 8.22054 3.00208 15.2998 3.00208C22.3791 3.00208 28.118 8.74098 28.118 15.8203C28.118 22.8996 22.3791 28.6384 15.2998 28.6384C8.22054 28.6384 2.48164 22.8996 2.48164 15.8203Z" fill="#4065d0" fill-rule="nonzero" opacity="1" stroke="none"/>
<path d="M2.48164 80.4226C2.48164 73.3433 8.22054 67.6044 15.2998 67.6044C22.3791 67.6044 28.118 73.3433 28.118 80.4226C28.118 87.5019 22.3791 93.2408 15.2998 93.2408C8.22054 93.2408 2.48164 87.5019 2.48164 80.4226Z" fill="#4065d0" fill-rule="nonzero" opacity="1" stroke="none"/>
<path d="M52.0771 48.1214C52.0771 41.0421 57.816 35.3033 64.8953 35.3033C71.9746 35.3033 77.7135 41.0421 77.7135 48.1214C77.7135 55.2007 71.9746 60.9396 64.8953 60.9396C57.816 60.9396 52.0771 55.2007 52.0771 48.1214Z" fill="#4065d0" fill-rule="nonzero" opacity="1" stroke="none"/>
</g>
<g opacity="1">
<path d="M15.2096 13.6074L43.8837 32.5349L64.561 46.1838" fill="none" opacity="1" stroke="#4065d0" stroke-linecap="butt" stroke-linejoin="round" stroke-width="2.44441"/>
<path d="M12.3025 17.2067L40.9766 36.1342L61.6539 49.7831" fill="none" opacity="1" stroke="#4065d0" stroke-linecap="butt" stroke-linejoin="round" stroke-width="2.44441"/>
<path d="M14.6135 80.4877L43.5693 61.2049L64.4498 47.2998" fill="none" opacity="1" stroke="#4065d0" stroke-linecap="butt" stroke-linejoin="round" stroke-width="2.44441"/>
</g>
<g fill="#dbe2ed" opacity="1" stroke="#ffffff" stroke-linecap="butt" stroke-linejoin="round" stroke-width="3">
<path d="M105.908 36.4506L111.398 48.2856L116.978 36.4506L126.068 36.4506L114.053 59.5356L108.608 59.5356L96.7282 36.4506L105.908 36.4506Z"/>
<path d="M128.889 44.1006L141.804 44.1006L141.804 50.8956L128.889 50.8956L128.889 44.1006Z"/>
<path d="M146.919 36.4506L155.064 36.4506L155.064 39.3756C156.174 38.0256 157.299 37.1181 158.439 36.6531C159.579 36.1881 160.914 35.9556 162.444 35.9556C164.064 35.9556 165.452 36.2181 166.607 36.7431C167.762 37.2681 168.744 38.0106 169.554 38.9706C170.214 39.7506 170.664 40.6206 170.904 41.5806C171.144 42.5406 171.264 43.6356 171.264 44.8656L171.264 59.5356L163.119 59.5356L163.119 47.8806C163.119 46.7406 163.037 45.8181 162.872 45.1131C162.707 44.4081 162.414 43.8456 161.994 43.4256C161.634 43.0656 161.229 42.8106 160.779 42.6606C160.329 42.5106 159.849 42.4356 159.339 42.4356C157.959 42.4356 156.902 42.8481 156.167 43.6731C155.432 44.4981 155.064 45.6756 155.064 47.2056L155.064 59.5356L146.919 59.5356L146.919 36.4506Z"/>
<path d="M196 44.6406C195.73 43.5006 195.175 42.5856 194.335 41.8956C193.495 41.2056 192.475 40.8606 191.275 40.8606C190.015 40.8606 188.987 41.1906 188.192 41.8506C187.397 42.5106 186.895 43.4406 186.685 44.6406L196 44.6406ZM186.46 49.3656C186.46 52.8756 188.11 54.6306 191.41 54.6306C193.18 54.6306 194.515 53.9106 195.415 52.4706L203.29 52.4706C201.7 57.7506 197.725 60.3906 191.365 60.3906C189.415 60.3906 187.63 60.0981 186.01 59.5131C184.39 58.9281 183.002 58.0956 181.847 57.0156C180.692 55.9356 179.8 54.6456 179.17 53.1456C178.54 51.6456 178.225 49.9656 178.225 48.1056C178.225 46.1856 178.525 44.4531 179.125 42.9081C179.725 41.3631 180.58 40.0506 181.69 38.9706C182.8 37.8906 184.142 37.0581 185.717 36.4731C187.292 35.8881 189.07 35.5956 191.05 35.5956C193 35.5956 194.755 35.8881 196.315 36.4731C197.875 37.0581 199.195 37.9056 200.275 39.0156C201.355 40.1256 202.18 41.4831 202.75 43.0881C203.32 44.6931 203.605 46.5006 203.605 48.5106L203.605 49.3656L186.46 49.3656Z"/>
<path d="M219.971 43.2456L219.971 59.5356L211.826 59.5356L211.826 43.2456L209.126 43.2456L209.126 36.4506L211.826 36.4506L211.826 29.5206L219.971 29.5206L219.971 36.4506L224.606 36.4506L224.606 43.2456L219.971 43.2456Z"/>
<path d="M236.291 36.4506L241.826 48.6006L247.586 36.4506L252.716 36.4506L258.476 48.9606L264.281 36.4506L273.326 36.4506L261.266 59.5356L255.821 59.5356L250.061 46.8906L244.571 59.5356L239.036 59.5356L227.201 36.4506L236.291 36.4506Z"/>
<path d="M284.967 47.8806C284.967 48.6606 285.109 49.3731 285.394 50.0181C285.679 50.6631 286.054 51.2256 286.519 51.7056C286.984 52.1856 287.539 52.5606 288.184 52.8306C288.829 53.1006 289.512 53.2356 290.232 53.2356C290.952 53.2356 291.634 53.1006 292.279 52.8306C292.924 52.5606 293.479 52.1856 293.944 51.7056C294.409 51.2256 294.784 50.6631 295.069 50.0181C295.354 49.3731 295.497 48.6756 295.497 47.9256C295.497 47.2056 295.354 46.5231 295.069 45.8781C294.784 45.2331 294.409 44.6706 293.944 44.1906C293.479 43.7106 292.924 43.3356 292.279 43.0656C291.634 42.7956 290.952 42.6606 290.232 42.6606C289.512 42.6606 288.829 42.7956 288.184 43.0656C287.539 43.3356 286.984 43.7106 286.519 44.1906C286.054 44.6706 285.679 45.2256 285.394 45.8556C285.109 46.4856 284.967 47.1606 284.967 47.8806ZM276.372 47.7906C276.372 46.0806 276.717 44.4831 277.407 42.9981C278.097 41.5131 279.057 40.2231 280.287 39.1281C281.517 38.0331 282.979 37.1706 284.674 36.5406C286.369 35.9106 288.222 35.5956 290.232 35.5956C292.212 35.5956 294.049 35.9031 295.744 36.5181C297.439 37.1331 298.909 37.9881 300.154 39.0831C301.399 40.1781 302.367 41.4831 303.057 42.9981C303.747 44.5131 304.092 46.1856 304.092 48.0156C304.092 49.8456 303.739 51.5181 303.034 53.0331C302.329 54.5481 301.362 55.8531 300.132 56.9481C298.902 58.0431 297.424 58.8906 295.699 59.4906C293.974 60.0906 292.107 60.3906 290.097 60.3906C288.117 60.3906 286.287 60.0906 284.607 59.4906C282.927 58.8906 281.479 58.0356 280.264 56.9256C279.049 55.8156 278.097 54.4881 277.407 52.9431C276.717 51.3981 276.372 49.6806 276.372 47.7906Z"/>
<path d="M311.097 36.4506L319.242 36.4506L319.242 40.2306C320.112 38.8506 321.177 37.7931 322.437 37.0581C323.697 36.3231 325.167 35.9556 326.847 35.9556C327.057 35.9556 327.29 35.9556 327.545 35.9556C327.8 35.9556 328.092 35.9856 328.422 36.0456L328.422 43.8306C327.342 43.2906 326.172 43.0206 324.912 43.0206C323.022 43.0206 321.605 43.5831 320.66 44.7081C319.715 45.8331 319.242 47.4756 319.242 49.6356L319.242 59.5356L311.097 59.5356L311.097 36.4506Z"/>
<path d="M342.538 22.1856L342.538 44.7756L351.088 36.4506L362.248 36.4506L350.683 47.1156L362.923 59.5356L351.493 59.5356L342.538 50.1306L342.538 59.5356L334.393 59.5356L334.393 22.1856L342.538 22.1856Z"/>
<path d="M364.393 44.1006L377.308 44.1006L377.308 50.8956L364.393 50.8956L364.393 44.1006Z"/>
<path d="M389.984 47.8806C389.984 48.6306 390.119 49.3281 390.389 49.9731C390.659 50.6181 391.027 51.1806 391.492 51.6606C391.957 52.1406 392.512 52.5156 393.157 52.7856C393.802 53.0556 394.499 53.1906 395.249 53.1906C395.969 53.1906 396.652 53.0556 397.297 52.7856C397.942 52.5156 398.497 52.1406 398.962 51.6606C399.427 51.1806 399.802 50.6181 400.087 49.9731C400.372 49.3281 400.514 48.6456 400.514 47.9256C400.514 47.1756 400.372 46.4856 400.087 45.8556C399.802 45.2256 399.419 44.6706 398.939 44.1906C398.459 43.7106 397.897 43.3356 397.252 43.0656C396.607 42.7956 395.939 42.6606 395.249 42.6606C394.529 42.6606 393.854 42.8031 393.224 43.0881C392.594 43.3731 392.039 43.7481 391.559 44.2131C391.079 44.6781 390.697 45.2256 390.412 45.8556C390.127 46.4856 389.984 47.1606 389.984 47.8806ZM408.254 36.4506L408.254 57.9606C408.254 59.2506 408.179 60.4056 408.029 61.4256C407.879 62.4456 407.669 63.3456 407.399 64.1256C407.039 65.1156 406.477 66.0381 405.712 66.8931C404.947 67.7481 404.024 68.4906 402.944 69.1206C401.864 69.7506 400.642 70.2456 399.277 70.6056C397.912 70.9656 396.434 71.1456 394.844 71.1456C393.044 71.1456 391.394 70.9206 389.894 70.4706C388.394 70.0206 387.082 69.3981 385.957 68.6031C384.832 67.8081 383.909 66.8781 383.189 65.8131C382.469 64.7481 381.989 63.5856 381.749 62.3256L390.929 62.3256C391.499 63.8556 392.789 64.6206 394.799 64.6206C396.509 64.6206 397.822 64.1406 398.737 63.1806C399.652 62.2206 400.109 60.8856 400.109 59.1756L400.109 56.9706C399.509 57.5406 398.932 58.0131 398.377 58.3881C397.822 58.7631 397.259 59.0706 396.689 59.3106C396.119 59.5506 395.519 59.7231 394.889 59.8281C394.259 59.9331 393.569 59.9856 392.819 59.9856C391.169 59.9856 389.654 59.7006 388.274 59.1306C386.894 58.5606 385.702 57.7656 384.697 56.7456C383.692 55.7256 382.912 54.5031 382.357 53.0781C381.802 51.6531 381.524 50.0706 381.524 48.3306C381.524 46.5606 381.824 44.9181 382.424 43.4031C383.024 41.8881 383.842 40.5681 384.877 39.4431C385.912 38.3181 387.142 37.4331 388.567 36.7881C389.992 36.1431 391.544 35.8206 393.224 35.8206C395.954 35.8206 398.249 36.8406 400.109 38.8806L400.109 36.4506L408.254 36.4506Z"/>
<path d="M416.925 36.4506L425.07 36.4506L425.07 40.2306C425.94 38.8506 427.005 37.7931 428.265 37.0581C429.525 36.3231 430.995 35.9556 432.675 35.9556C432.885 35.9556 433.117 35.9556 433.372 35.9556C433.627 35.9556 433.92 35.9856 434.25 36.0456L434.25 43.8306C433.17 43.2906 432 43.0206 430.74 43.0206C428.85 43.0206 427.432 43.5831 426.487 44.7081C425.542 45.8331 425.07 47.4756 425.07 49.6356L425.07 59.5356L416.925 59.5356L416.925 36.4506Z"/>
<path d="M448.05 47.9256C448.05 48.6756 448.185 49.3731 448.455 50.0181C448.725 50.6631 449.093 51.2256 449.558 51.7056C450.023 52.1856 450.578 52.5606 451.223 52.8306C451.868 53.1006 452.565 53.2356 453.315 53.2356C454.035 53.2356 454.718 53.1006 455.363 52.8306C456.008 52.5606 456.563 52.1856 457.028 51.7056C457.493 51.2256 457.868 50.6706 458.153 50.0406C458.438 49.4106 458.58 48.7356 458.58 48.0156C458.58 47.2956 458.438 46.6131 458.153 45.9681C457.868 45.3231 457.493 44.7606 457.028 44.2806C456.563 43.8006 456.008 43.4256 455.363 43.1556C454.718 42.8856 454.035 42.7506 453.315 42.7506C452.565 42.7506 451.868 42.8856 451.223 43.1556C450.578 43.4256 450.023 43.8006 449.558 44.2806C449.093 44.7606 448.725 45.3081 448.455 45.9231C448.185 46.5381 448.05 47.2056 448.05 47.9256ZM458.31 36.4506L466.5 36.4506L466.5 59.5356L458.31 59.5356L458.31 56.9706C456.57 59.1606 454.215 60.2556 451.245 60.2556C449.565 60.2556 448.02 59.9481 446.61 59.3331C445.2 58.7181 443.97 57.8556 442.92 56.7456C441.87 55.6356 441.053 54.3306 440.468 52.8306C439.883 51.3306 439.59 49.6956 439.59 47.9256C439.59 46.2756 439.875 44.7081 440.445 43.2231C441.015 41.7381 441.81 40.4406 442.83 39.3306C443.85 38.2206 445.065 37.3431 446.475 36.6981C447.885 36.0531 449.445 35.7306 451.155 35.7306C454.035 35.7306 456.42 36.7356 458.31 38.7456L458.31 36.4506Z"/>
<path d="M492.766 48.0606C492.766 47.3406 492.638 46.6581 492.383 46.0131C492.128 45.3681 491.761 44.8056 491.281 44.3256C490.801 43.8456 490.238 43.4631 489.593 43.1781C488.948 42.8931 488.251 42.7506 487.501 42.7506C486.781 42.7506 486.106 42.8856 485.476 43.1556C484.846 43.4256 484.298 43.8006 483.833 44.2806C483.368 44.7606 482.993 45.3231 482.708 45.9681C482.423 46.6131 482.281 47.2956 482.281 48.0156C482.281 48.7356 482.416 49.4106 482.686 50.0406C482.956 50.6706 483.331 51.2181 483.811 51.6831C484.291 52.1481 484.853 52.5231 485.498 52.8081C486.143 53.0931 486.826 53.2356 487.546 53.2356C488.266 53.2356 488.941 53.1006 489.571 52.8306C490.201 52.5606 490.748 52.1856 491.213 51.7056C491.678 51.2256 492.053 50.6706 492.338 50.0406C492.623 49.4106 492.766 48.7506 492.766 48.0606ZM482.506 71.0556L474.361 71.0556L474.361 36.4506L482.506 36.4506L482.506 39.0156C484.246 36.8256 486.616 35.7306 489.616 35.7306C491.266 35.7306 492.803 36.0531 494.228 36.6981C495.653 37.3431 496.891 38.2206 497.941 39.3306C498.991 40.4406 499.808 41.7456 500.393 43.2456C500.978 44.7456 501.271 46.3506 501.271 48.0606C501.271 49.7706 500.978 51.3606 500.393 52.8306C499.808 54.3006 498.998 55.5906 497.963 56.7006C496.928 57.8106 495.706 58.6806 494.296 59.3106C492.886 59.9406 491.356 60.2556 489.706 60.2556C486.826 60.2556 484.426 59.2656 482.506 57.2856L482.506 71.0556Z"/>
<path d="M508.231 22.1856L516.376 22.1856L516.376 39.3756C517.486 38.0256 518.611 37.1181 519.751 36.6531C520.891 36.1881 522.226 35.9556 523.756 35.9556C526.666 35.9556 528.864 36.7581 530.349 38.3631C531.834 39.9681 532.576 42.1356 532.576 44.8656L532.576 59.5356L524.431 59.5356L524.431 47.8806C524.431 46.7106 524.341 45.7656 524.161 45.0456C523.981 44.3256 523.681 43.7706 523.261 43.3806C522.541 42.7506 521.671 42.4356 520.651 42.4356C519.271 42.4356 518.214 42.8481 517.479 43.6731C516.744 44.4981 516.376 45.6756 516.376 47.2056L516.376 59.5356L508.231 59.5356L508.231 22.1856Z"/>
</g>
<g fill="#2d355d" opacity="1" stroke="none">
<path d="M105.841 36.4506L111.331 48.2856L116.911 36.4506L126.001 36.4506L113.986 59.5356L108.541 59.5356L96.6614 36.4506L105.841 36.4506Z"/>
<path d="M128.822 44.1006L141.737 44.1006L141.737 50.8956L128.822 50.8956L128.822 44.1006Z"/>
<path d="M146.853 36.4506L154.998 36.4506L154.998 39.3756C156.108 38.0256 157.233 37.1181 158.373 36.6531C159.513 36.1881 160.848 35.9556 162.378 35.9556C163.998 35.9556 165.385 36.2181 166.54 36.7431C167.695 37.2681 168.678 38.0106 169.488 38.9706C170.148 39.7506 170.598 40.6206 170.838 41.5806C171.078 42.5406 171.198 43.6356 171.198 44.8656L171.198 59.5356L163.053 59.5356L163.053 47.8806C163.053 46.7406 162.97 45.8181 162.805 45.1131C162.64 44.4081 162.348 43.8456 161.928 43.4256C161.568 43.0656 161.163 42.8106 160.713 42.6606C160.263 42.5106 159.783 42.4356 159.273 42.4356C157.893 42.4356 156.835 42.8481 156.1 43.6731C155.365 44.4981 154.998 45.6756 154.998 47.2056L154.998 59.5356L146.853 59.5356L146.853 36.4506Z"/>
<path d="M195.933 44.6406C195.663 43.5006 195.108 42.5856 194.268 41.8956C193.428 41.2056 192.408 40.8606 191.208 40.8606C189.948 40.8606 188.921 41.1906 188.126 41.8506C187.331 42.5106 186.828 43.4406 186.618 44.6406L195.933 44.6406ZM186.393 49.3656C186.393 52.8756 188.043 54.6306 191.343 54.6306C193.113 54.6306 194.448 53.9106 195.348 52.4706L203.223 52.4706C201.633 57.7506 197.658 60.3906 191.298 60.3906C189.348 60.3906 187.563 60.0981 185.943 59.5131C184.323 58.9281 182.936 58.0956 181.781 57.0156C180.626 55.9356 179.733 54.6456 179.103 53.1456C178.473 51.6456 178.158 49.9656 178.158 48.1056C178.158 46.1856 178.458 44.4531 179.058 42.9081C179.658 41.3631 180.513 40.0506 181.623 38.9706C182.733 37.8906 184.076 37.0581 185.651 36.4731C187.226 35.8881 189.003 35.5956 190.983 35.5956C192.933 35.5956 194.688 35.8881 196.248 36.4731C197.808 37.0581 199.128 37.9056 200.208 39.0156C201.288 40.1256 202.113 41.4831 202.683 43.0881C203.253 44.6931 203.538 46.5006 203.538 48.5106L203.538 49.3656L186.393 49.3656Z"/>
<path d="M219.904 43.2456L219.904 59.5356L211.759 59.5356L211.759 43.2456L209.059 43.2456L209.059 36.4506L211.759 36.4506L211.759 29.5206L219.904 29.5206L219.904 36.4506L224.539 36.4506L224.539 43.2456L219.904 43.2456Z"/>
<path d="M236.224 36.4506L241.759 48.6006L247.519 36.4506L252.649 36.4506L258.409 48.9606L264.214 36.4506L273.259 36.4506L261.199 59.5356L255.754 59.5356L249.994 46.8906L244.504 59.5356L238.969 59.5356L227.134 36.4506L236.224 36.4506Z"/>
<path d="M284.9 47.8806C284.9 48.6606 285.042 49.3731 285.327 50.0181C285.612 50.6631 285.987 51.2256 286.452 51.7056C286.917 52.1856 287.472 52.5606 288.117 52.8306C288.762 53.1006 289.445 53.2356 290.165 53.2356C290.885 53.2356 291.567 53.1006 292.212 52.8306C292.857 52.5606 293.412 52.1856 293.877 51.7056C294.342 51.2256 294.717 50.6631 295.002 50.0181C295.287 49.3731 295.43 48.6756 295.43 47.9256C295.43 47.2056 295.287 46.5231 295.002 45.8781C294.717 45.2331 294.342 44.6706 293.877 44.1906C293.412 43.7106 292.857 43.3356 292.212 43.0656C291.567 42.7956 290.885 42.6606 290.165 42.6606C289.445 42.6606 288.762 42.7956 288.117 43.0656C287.472 43.3356 286.917 43.7106 286.452 44.1906C285.987 44.6706 285.612 45.2256 285.327 45.8556C285.042 46.4856 284.9 47.1606 284.9 47.8806ZM276.305 47.7906C276.305 46.0806 276.65 44.4831 277.34 42.9981C278.03 41.5131 278.99 40.2231 280.22 39.1281C281.45 38.0331 282.912 37.1706 284.607 36.5406C286.302 35.9106 288.155 35.5956 290.165 35.5956C292.145 35.5956 293.982 35.9031 295.677 36.5181C297.372 37.1331 298.842 37.9881 300.087 39.0831C301.332 40.1781 302.3 41.4831 302.99 42.9981C303.68 44.5131 304.025 46.1856 304.025 48.0156C304.025 49.8456 303.672 51.5181 302.967 53.0331C302.262 54.5481 301.295 55.8531 300.065 56.9481C298.835 58.0431 297.357 58.8906 295.632 59.4906C293.907 60.0906 292.04 60.3906 290.03 60.3906C288.05 60.3906 286.22 60.0906 284.54 59.4906C282.86 58.8906 281.412 58.0356 280.197 56.9256C278.982 55.8156 278.03 54.4881 277.34 52.9431C276.65 51.3981 276.305 49.6806 276.305 47.7906Z"/>
<path d="M311.03 36.4506L319.175 36.4506L319.175 40.2306C320.045 38.8506 321.11 37.7931 322.37 37.0581C323.63 36.3231 325.1 35.9556 326.78 35.9556C326.99 35.9556 327.223 35.9556 327.478 35.9556C327.733 35.9556 328.025 35.9856 328.355 36.0456L328.355 43.8306C327.275 43.2906 326.105 43.0206 324.845 43.0206C322.955 43.0206 321.538 43.5831 320.593 44.7081C319.648 45.8331 319.175 47.4756 319.175 49.6356L319.175 59.5356L311.03 59.5356L311.03 36.4506Z"/>
<path d="M342.471 22.1856L342.471 44.7756L351.021 36.4506L362.181 36.4506L350.616 47.1156L362.856 59.5356L351.426 59.5356L342.471 50.1306L342.471 59.5356L334.326 59.5356L334.326 22.1856L342.471 22.1856Z"/>
<path d="M364.327 44.1006L377.242 44.1006L377.242 50.8956L364.327 50.8956L364.327 44.1006Z"/>
<path d="M389.917 47.8806C389.917 48.6306 390.052 49.3281 390.322 49.9731C390.592 50.6181 390.96 51.1806 391.425 51.6606C391.89 52.1406 392.445 52.5156 393.09 52.7856C393.735 53.0556 394.432 53.1906 395.182 53.1906C395.902 53.1906 396.585 53.0556 397.23 52.7856C397.875 52.5156 398.43 52.1406 398.895 51.6606C399.36 51.1806 399.735 50.6181 400.02 49.9731C400.305 49.3281 400.447 48.6456 400.447 47.9256C400.447 47.1756 400.305 46.4856 400.02 45.8556C399.735 45.2256 399.352 44.6706 398.872 44.1906C398.392 43.7106 397.83 43.3356 397.185 43.0656C396.54 42.7956 395.872 42.6606 395.182 42.6606C394.462 42.6606 393.787 42.8031 393.157 43.0881C392.527 43.3731 391.972 43.7481 391.492 44.2131C391.012 44.6781 390.63 45.2256 390.345 45.8556C390.06 46.4856 389.917 47.1606 389.917 47.8806ZM408.187 36.4506L408.187 57.9606C408.187 59.2506 408.112 60.4056 407.962 61.4256C407.812 62.4456 407.602 63.3456 407.332 64.1256C406.972 65.1156 406.41 66.0381 405.645 66.8931C404.88 67.7481 403.957 68.4906 402.877 69.1206C401.797 69.7506 400.575 70.2456 399.21 70.6056C397.845 70.9656 396.367 71.1456 394.777 71.1456C392.977 71.1456 391.327 70.9206 389.827 70.4706C388.327 70.0206 387.015 69.3981 385.89 68.6031C384.765 67.8081 383.842 66.8781 383.122 65.8131C382.402 64.7481 381.922 63.5856 381.682 62.3256L390.862 62.3256C391.432 63.8556 392.722 64.6206 394.732 64.6206C396.442 64.6206 397.755 64.1406 398.67 63.1806C399.585 62.2206 400.042 60.8856 400.042 59.1756L400.042 56.9706C399.442 57.5406 398.865 58.0131 398.31 58.3881C397.755 58.7631 397.192 59.0706 396.622 59.3106C396.052 59.5506 395.452 59.7231 394.822 59.8281C394.192 59.9331 393.502 59.9856 392.752 59.9856C391.102 59.9856 389.587 59.7006 388.207 59.1306C386.827 58.5606 385.635 57.7656 384.63 56.7456C383.625 55.7256 382.845 54.5031 382.29 53.0781C381.735 51.6531 381.457 50.0706 381.457 48.3306C381.457 46.5606 381.757 44.9181 382.357 43.4031C382.957 41.8881 383.775 40.5681 384.81 39.4431C385.845 38.3181 387.075 37.4331 388.5 36.7881C389.925 36.1431 391.477 35.8206 393.157 35.8206C395.887 35.8206 398.182 36.8406 400.042 38.8806L400.042 36.4506L408.187 36.4506Z"/>
<path d="M416.858 36.4506L425.003 36.4506L425.003 40.2306C425.873 38.8506 426.938 37.7931 428.198 37.0581C429.458 36.3231 430.928 35.9556 432.608 35.9556C432.818 35.9556 433.05 35.9556 433.305 35.9556C433.56 35.9556 433.853 35.9856 434.183 36.0456L434.183 43.8306C433.103 43.2906 431.933 43.0206 430.673 43.0206C428.783 43.0206 427.365 43.5831 426.42 44.7081C425.475 45.8331 425.003 47.4756 425.003 49.6356L425.003 59.5356L416.858 59.5356L416.858 36.4506Z"/>
<path d="M447.983 47.9256C447.983 48.6756 448.118 49.3731 448.388 50.0181C448.658 50.6631 449.026 51.2256 449.491 51.7056C449.956 52.1856 450.511 52.5606 451.156 52.8306C451.801 53.1006 452.498 53.2356 453.248 53.2356C453.968 53.2356 454.651 53.1006 455.296 52.8306C455.941 52.5606 456.496 52.1856 456.961 51.7056C457.426 51.2256 457.801 50.6706 458.086 50.0406C458.371 49.4106 458.513 48.7356 458.513 48.0156C458.513 47.2956 458.371 46.6131 458.086 45.9681C457.801 45.3231 457.426 44.7606 456.961 44.2806C456.496 43.8006 455.941 43.4256 455.296 43.1556C454.651 42.8856 453.968 42.7506 453.248 42.7506C452.498 42.7506 451.801 42.8856 451.156 43.1556C450.511 43.4256 449.956 43.8006 449.491 44.2806C449.026 44.7606 448.658 45.3081 448.388 45.9231C448.118 46.5381 447.983 47.2056 447.983 47.9256ZM458.243 36.4506L466.433 36.4506L466.433 59.5356L458.243 59.5356L458.243 56.9706C456.503 59.1606 454.148 60.2556 451.178 60.2556C449.498 60.2556 447.953 59.9481 446.543 59.3331C445.133 58.7181 443.903 57.8556 442.853 56.7456C441.803 55.6356 440.986 54.3306 440.401 52.8306C439.816 51.3306 439.523 49.6956 439.523 47.9256C439.523 46.2756 439.808 44.7081 440.378 43.2231C440.948 41.7381 441.743 40.4406 442.763 39.3306C443.783 38.2206 444.998 37.3431 446.408 36.6981C447.818 36.0531 449.378 35.7306 451.088 35.7306C453.968 35.7306 456.353 36.7356 458.243 38.7456L458.243 36.4506Z"/>
<path d="M492.699 48.0606C492.699 47.3406 492.571 46.6581 492.316 46.0131C492.061 45.3681 491.694 44.8056 491.214 44.3256C490.734 43.8456 490.171 43.4631 489.526 43.1781C488.881 42.8931 488.184 42.7506 487.434 42.7506C486.714 42.7506 486.039 42.8856 485.409 43.1556C484.779 43.4256 484.231 43.8006 483.766 44.2806C483.301 44.7606 482.926 45.3231 482.641 45.9681C482.356 46.6131 482.214 47.2956 482.214 48.0156C482.214 48.7356 482.349 49.4106 482.619 50.0406C482.889 50.6706 483.264 51.2181 483.744 51.6831C484.224 52.1481 484.786 52.5231 485.431 52.8081C486.076 53.0931 486.759 53.2356 487.479 53.2356C488.199 53.2356 488.874 53.1006 489.504 52.8306C490.134 52.5606 490.681 52.1856 491.146 51.7056C491.611 51.2256 491.986 50.6706 492.271 50.0406C492.556 49.4106 492.699 48.7506 492.699 48.0606ZM482.439 71.0556L474.294 71.0556L474.294 36.4506L482.439 36.4506L482.439 39.0156C484.179 36.8256 486.549 35.7306 489.549 35.7306C491.199 35.7306 492.736 36.0531 494.161 36.6981C495.586 37.3431 496.824 38.2206 497.874 39.3306C498.924 40.4406 499.741 41.7456 500.326 43.2456C500.911 44.7456 501.204 46.3506 501.204 48.0606C501.204 49.7706 500.911 51.3606 500.326 52.8306C499.741 54.3006 498.931 55.5906 497.896 56.7006C496.861 57.8106 495.639 58.6806 494.229 59.3106C492.819 59.9406 491.289 60.2556 489.639 60.2556C486.759 60.2556 484.359 59.2656 482.439 57.2856L482.439 71.0556Z"/>
<path d="M508.165 22.1856L516.31 22.1856L516.31 39.3756C517.42 38.0256 518.545 37.1181 519.685 36.6531C520.825 36.1881 522.16 35.9556 523.69 35.9556C526.6 35.9556 528.797 36.7581 530.282 38.3631C531.767 39.9681 532.51 42.1356 532.51 44.8656L532.51 59.5356L524.365 59.5356L524.365 47.8806C524.365 46.7106 524.275 45.7656 524.095 45.0456C523.915 44.3256 523.615 43.7706 523.195 43.3806C522.475 42.7506 521.605 42.4356 520.585 42.4356C519.205 42.4356 518.147 42.8481 517.412 43.6731C516.677 44.4981 516.31 45.6756 516.31 47.2056L516.31 59.5356L508.165 59.5356L508.165 22.1856Z"/>
</g>
</g>
</svg>
